<?xml version="1.0"?>
<svg width="337.2006" height="141.8398" xmlns="http://www.w3.org/2000/svg" xmlns:svg="http://www.w3.org/2000/svg" enable-background="new 0 0 337.2006 141.8398" version="1.1" xml:space="preserve">

 <g class="layer">
  <title>Layer 1</title>
  <g fill="#1E1E1C" id="svg_1">
   <g id="svg_58">
    <polygon fill="#ffffff" id="svg_2" points="287.93 49.334 287.93 51.365 292.14 51.365 292.14 67.128 294.35 67.128 294.35 51.365 298.57 51.365 298.57 49.334"/>
    <polygon fill="#ffffff" id="svg_3" points="273.08 49.334 262.44 49.334 262.44 51.365 266.66 51.365 266.66 67.128 268.87 67.128 268.87 51.365 273.08 51.365"/>
    <rect fill="#ffffff" height="17.79" id="svg_4" width="2.21" x="257.11" y="49.33"/>
    <path d="m248.66,56.6l-1.27,-0.49c-1.11,-0.43 -2.47,-1.16 -2.47,-2.55c0,-1.56 1.55,-2.53 2.96,-2.53c1.34,0 2.19,0.57 2.85,1.68l1.77,-1.06c-0.97,-1.73 -2.59,-2.69 -4.57,-2.69c-2.68,0 -5.23,1.72 -5.23,4.6c0,2.48 1.84,3.63 3.86,4.51l1.23,0.52c1.53,0.63 3.06,1.46 3.06,3.37c0,1.86 -1.37,3.47 -3.27,3.47c-1.91,0 -3.46,-1.42 -3.44,-3.37l-2.24,0.47c0.38,2.85 2.62,4.98 5.49,4.98c3.18,0 5.67,-2.32 5.67,-5.55c0,-2.97 -1.88,-4.36 -4.4,-5.36z" fill="#ffffff" id="svg_5"/>
    <polygon fill="#ffffff" id="svg_6" points="224.38 65.1 217.06 65.1 217.06 58.374 224.17 58.374 224.17 56.345 217.06 56.345 217.06 51.365 224.38 51.365 224.38 49.334 214.85 49.334 214.85 67.128 224.38 67.128"/>
    <polygon fill="#ffffff" id="svg_7" points="212.55 49.334 210.13 49.334 204.85 62.504 199.56 49.334 197.13 49.334 204.85 68.074"/>
    <rect fill="#ffffff" height="17.79" id="svg_8" width="2.21" x="192.61" y="49.33"/>
    <polygon fill="#ffffff" id="svg_9" points="174.45 53.867 187.77 67.861 187.77 49.334 185.56 49.334 185.56 62.48 172.23 48.485 172.23 67.128 174.45 67.128"/>
    <path d="m161.73,67.51c4.07,0 6.5,-3 6.5,-6.92l0,-11.26l-2.22,0l0,10.51c0,2.9 -0.87,5.59 -4.28,5.59c-3.41,0 -4.28,-2.69 -4.28,-5.59l0,-10.51l-2.22,0l0,11.26c0,3.92 2.43,6.92 6.5,6.92z" fill="#ffffff" id="svg_10"/>
    <path d="m238.77,54.41c0,-1.7 -0.85,-3.38 -2.33,-4.25c-1.41,-0.8 -3.11,-0.83 -4.69,-0.83l-2.68,0l0,17.8l2.21,0l0,-7.53l0.92,0l5.23,7.53l2.68,0l-5.6,-7.74c2.57,-0.31 4.26,-2.43 4.26,-4.98zm-6.78,3.35l-0.71,0l0,-6.44l0.59,0c2.19,0 4.83,0.4 4.83,3.18c0,2.84 -2.45,3.26 -4.71,3.26z" fill="#ffffff" id="svg_11"/>
    <path d="m283.98,52.05c0.78,0 1.41,-0.64 1.41,-1.44c0,-0.78 -0.63,-1.42 -1.41,-1.42c-0.8,0 -1.44,0.64 -1.44,1.42c0,0.8 0.64,1.44 1.44,1.44z" fill="#ffffff" id="svg_12"/>
    <path d="m272.02,67.13l2.38,0l2.02,-4.46l8.15,0l2.02,4.46l2.38,0l-8.48,-18.55l-8.47,18.55zm5.32,-6.49l3.15,-7.2l3.16,7.2l-6.31,0z" fill="#ffffff" id="svg_13"/>
    <path d="m277,52.05c0.8,0 1.44,-0.64 1.44,-1.44c0,-0.78 -0.64,-1.42 -1.44,-1.42c-0.78,0 -1.41,0.64 -1.41,1.42c0,0.8 0.63,1.44 1.41,1.44z" fill="#ffffff" id="svg_14"/>
    <polygon fill="#ffffff" id="svg_15" points="157.44 75.659 155.23 75.659 155.23 93.453 162.83 93.453 162.83 91.424 157.44 91.424"/>
    <path d="m227.44,86.52l4.59,0c-0.09,2.9 -3.06,5.28 -5.81,5.28c-3.84,0 -6.9,-3.54 -6.9,-7.27c0,-3.98 3.11,-7.22 7.08,-7.22c2.17,0 4.31,1.16 5.58,2.91l1.56,-1.49c-1.74,-2.2 -4.47,-3.45 -7.23,-3.45c-5.11,0 -9.2,4.2 -9.2,9.32c0,4.94 4,9.23 8.97,9.23c4.96,0 8.4,-3.75 8.4,-8.64l0,-0.7l-7.04,0l0,2.03z" fill="#ffffff" id="svg_16"/>
    <rect fill="#ffffff" height="17.79" id="svg_17" width="2.21" x="211.78" y="75.66"/>
    <polygon fill="#ffffff" id="svg_18" points="197.42 75.858 197.42 77.89 205.14 77.89 196.15 93.653 208.75 93.653 208.75 91.623 199.75 91.623 208.75 75.858"/>
    <rect fill="#ffffff" height="17.79" id="svg_19" width="2.21" x="178.88" y="75.66"/>
    <polygon fill="#ffffff" id="svg_20" points="165.04 93.453 174.58 93.453 174.58 91.424 167.26 91.424 167.26 84.699 174.36 84.699 174.36 82.669 167.26 82.669 167.26 77.688 174.58 77.688 174.58 75.659 165.04 75.659"/>
    <path d="m188.55,75.66l-2.54,0l0,17.79l2.21,0l0,-7.45l1.27,0c3.37,0 6.22,-1.44 6.22,-5.2c0,-3.25 -1.7,-5.14 -7.16,-5.14zm0.38,8.35l-0.71,0l0,-6.37l0.59,0c2.19,0 4.82,0.33 4.82,3.12c0,2.83 -2.44,3.25 -4.7,3.25z" fill="#ffffff" id="svg_21"/>
    <rect fill="#ffffff" height="91.21" id="svg_22" width="0.52" x="141.94" y="25.55"/>
    <path d="m83.56,25.55c-25.14,0 -45.6,20.46 -45.6,45.61c0,25.14 20.46,45.61 45.6,45.61c25.15,0 45.61,-20.47 45.61,-45.61c0,-25.15 -20.46,-45.61 -45.61,-45.61zm0,90.69c-24.85,0 -45.08,-20.22 -45.08,-45.08s20.23,-45.08 45.08,-45.08s45.08,20.22 45.08,45.08s-20.22,45.08 -45.08,45.08z" fill="#ffffff" id="svg_23"/>
    <path d="m72.37,57.68c0.01,0.01 0.18,0.08 0.19,0.08c0.01,0 0.1,0.05 0.11,0.05c0.09,-0.03 0.12,-0.11 0.17,-0.19c0,-0.01 0.24,-0.41 0.41,-0.72c0.1,-0.19 0.25,-0.37 0.57,-0.29c0.1,0.03 0.29,0.1 0.43,0.15c0.01,-0.02 0.01,-0.03 0.03,-0.05c0.02,-0.03 0.04,-0.06 0.05,-0.09c0.01,0 0.02,-0.04 0.03,-0.04c0.02,-0.05 0.03,-0.1 0.04,-0.14c-0.02,-0.03 -0.03,-0.07 -0.04,-0.1c-0.04,-0.02 -0.07,-0.05 -0.09,-0.08c-0.06,-0.02 -0.12,-0.04 -0.17,-0.06c-0.49,-0.2 -0.98,-0.04 -1.24,0.44c-0.14,0.24 -0.41,0.58 -0.49,0.75c-0.05,0.09 -0.09,0.22 0,0.29z" fill="#ffffff" id="svg_24"/>
    <path d="m72.1,56.57c0.13,0.04 0.26,-0.08 0.29,-0.14c0.03,-0.06 -0.04,-0.2 -0.06,-0.26c-0.03,-0.05 -0.09,-0.09 -0.19,-0.13c-0.11,-0.04 -0.21,0 -0.21,0s-0.16,0.06 -0.2,0.13c-0.05,0.08 0.01,0.19 0.07,0.26c0.05,0.07 0.16,0.11 0.3,0.14z" fill="#ffffff" id="svg_25"/>
    <path d="m72.02,58.11c-0.12,-0.09 -0.24,0.02 -0.24,0.02s-0.05,0.09 -0.05,0.2c0,0.12 -0.01,0.33 0.5,0.45c0.19,0.05 0.3,0 0.36,-0.15c0.14,-0.34 -0.32,-0.34 -0.57,-0.52z" fill="#ffffff" id="svg_26"/>
    <path d="m95.1,56.9c0.17,0.02 0.31,-0.14 0.34,-0.22c0.02,-0.07 -0.07,-0.24 -0.11,-0.3c-0.05,-0.06 -0.12,-0.11 -0.26,-0.14c-0.13,-0.03 -0.25,0.03 -0.25,0.03s-0.2,0.1 -0.24,0.19c-0.04,0.1 0.05,0.23 0.13,0.31c0.08,0.08 0.22,0.11 0.39,0.13z" fill="#ffffff" id="svg_27"/>
    <path d="m99.86,68.55c0.12,0.01 0.22,-0.11 0.24,-0.16c0.02,-0.06 -0.05,-0.18 -0.08,-0.22c-0.03,-0.04 -0.08,-0.08 -0.18,-0.1c-0.1,-0.02 -0.18,0.02 -0.18,0.02s-0.15,0.07 -0.18,0.14c-0.02,0.07 0.04,0.17 0.1,0.22c0.05,0.06 0.15,0.08 0.28,0.1z" fill="#ffffff" id="svg_28"/>
    <path d="m92.59,56.26c-0.05,-0.05 -0.15,-0.06 -0.28,-0.04c-0.13,0.01 -0.23,0.11 -0.23,0.11s-0.15,0.16 -0.15,0.26c-0.01,0.11 0.12,0.2 0.22,0.25c0.11,0.04 0.24,0.03 0.41,-0.01c0.17,-0.04 0.25,-0.25 0.25,-0.33c-0.01,-0.08 -0.15,-0.2 -0.22,-0.24z" fill="#ffffff" id="svg_29"/>
    <path d="m74.1,57.17c-0.11,-0.03 -0.21,0.02 -0.21,0.02s-0.16,0.08 -0.19,0.16c-0.03,0.08 0.04,0.18 0.1,0.25c0.07,0.06 0.18,0.09 0.32,0.1c0.14,0.02 0.25,-0.11 0.27,-0.18c0.02,-0.06 -0.06,-0.19 -0.09,-0.24c-0.03,-0.05 -0.1,-0.09 -0.2,-0.11z" fill="#ffffff" id="svg_30"/>
    <path d="m54.85,94.13l-1.63,0.36l-1.35,-1.88l0.88,-1.42l-0.38,-0.54l-3.21,5.28l6.07,-1.27l-0.38,-0.53zm-4.53,0.99l1.24,-1.99l1.06,1.49l-2.3,0.5z" fill="#ffffff" id="svg_31"/>
    <polygon fill="#ffffff" id="svg_32" points="50.605 87.309 50.111 87.57 50.806 88.892 46.51 91.153 46.792 91.688 51.582 89.164"/>
    <polygon fill="#ffffff" id="svg_33" points="50.035 86.323 49.832 85.74 46.144 86.284 46.139 86.27 49.238 83.354 44.996 82.98 44.992 82.966 48.223 81.107 48.02 80.524 42.974 83.438 47.916 83.813 44.267 87.162"/>
    <path d="m47.68,78.67l-1.62,-0.42l-0.34,-2.29l1.42,-0.86l-0.1,-0.66l-5.24,3.26l5.98,1.62l-0.1,-0.65zm-4.49,-1.17l2.01,-1.22l0.27,1.81l-2.28,-0.59z" fill="#ffffff" id="svg_34"/>
    <polygon fill="#ffffff" id="svg_35" points="46.868 71.66 46.915 71.046 43.314 70.075 43.316 70.06 47.321 68.621 43.579 66.587 43.58 66.573 47.284 66.155 47.331 65.539 41.54 66.202 45.925 68.516 41.243 70.135"/>
    <path d="m47.62,64.39l-1.33,-1.01l0.55,-2.24l1.64,-0.25l0.16,-0.65l-6.09,1l4.91,3.79l0.16,-0.64zm-1.82,-1.38l-1.88,-1.42l2.32,-0.36l-0.44,1.78z" fill="#ffffff" id="svg_36"/>
    <polygon fill="#ffffff" id="svg_37" points="44.841 56.662 49.365 58.424 49.583 57.861 45.06 56.099 45.54 54.869 45.018 54.663 43.844 57.676 44.366 57.88"/>
    <polygon fill="#ffffff" id="svg_38" points="52.149 52.621 51.657 52.354 50.6 54.287 48.734 53.268 49.762 51.389 49.27 51.12 48.243 52.998 46.832 52.226 47.891 50.292 47.399 50.022 46.051 52.486 50.801 55.085"/>
    <path d="m53.73,50.26l-1.93,-1.39l0.09,-0.12l2.88,0.06l0.44,-0.6l-2.98,-0.02c0.22,-0.36 0.29,-0.72 0.21,-1.07c-0.08,-0.36 -0.28,-0.66 -0.62,-0.9c-0.5,-0.36 -0.94,-0.43 -1.33,-0.22c-0.4,0.22 -0.74,0.53 -1.05,0.94l-0.46,0.64l4.39,3.17l0.36,-0.49zm-2.24,-1.86c0,0 0,0 -0.01,0l-0.11,0.16l-1.58,-1.14l0.11,-0.15c0.21,-0.29 0.44,-0.52 0.69,-0.69c0.24,-0.16 0.55,-0.11 0.91,0.15c0.34,0.24 0.47,0.51 0.4,0.81c-0.07,0.3 -0.21,0.58 -0.4,0.85c-0.01,0.01 -0.01,0.01 -0.01,0.01z" fill="#ffffff" id="svg_39"/>
    <polygon fill="#ffffff" id="svg_40" points="113.98 51.024 114.43 50.696 113.56 49.485 117.49 46.642 117.14 46.153 112.75 49.324"/>
    <rect fill="#ffffff" height="0.6" id="svg_41" transform="matrix(.8672 -.498 .498 .8672 -10.184 65.468)" width="5.41" x="114.92" y="51.52"/>
    <path d="m117.04,56.63l2.19,-0.92l0.16,0.41c0.02,0.02 0.03,0.05 0.04,0.08c0.01,0.02 0.02,0.05 0.03,0.08c0.09,0.17 0.19,0.34 0.31,0.5c0.12,0.16 0.27,0.29 0.45,0.38c0.19,0.1 0.39,0.15 0.6,0.16c0.22,0 0.42,-0.03 0.62,-0.11c0.01,0 0.02,0 0.03,-0.01c0,0 0.01,0 0.02,-0.01c0.22,-0.09 0.41,-0.23 0.58,-0.41c0.17,-0.18 0.27,-0.39 0.32,-0.63c0.04,-0.2 0.04,-0.39 0,-0.59c-0.04,-0.19 -0.1,-0.38 -0.17,-0.57c-0.02,-0.03 -0.03,-0.06 -0.04,-0.09c-0.02,-0.04 -0.03,-0.07 -0.04,-0.1l-0.34,-0.82l-4.99,2.09l0.23,0.56zm4.48,-1.88l0.08,0.21c0.01,0 0.01,0 0.01,0.01c0,0 0,0 0,0.01c0.14,0.32 0.21,0.63 0.24,0.94c0.02,0.31 -0.17,0.54 -0.58,0.71c-0.36,0.15 -0.64,0.14 -0.86,-0.04c-0.22,-0.17 -0.39,-0.41 -0.51,-0.72l-0.16,-0.37l1.78,-0.75z" fill="#ffffff" id="svg_42"/>
    <path d="m121.83,60.31c-0.13,0.28 -0.22,0.59 -0.28,0.93l-0.06,0.36c0,0.01 0,0.02 -0.01,0.02c0,0.01 0,0.02 0,0.03c-0.04,0.27 -0.11,0.51 -0.2,0.73c-0.09,0.23 -0.29,0.38 -0.58,0.45c-0.3,0.08 -0.57,0.03 -0.82,-0.13c-0.25,-0.17 -0.41,-0.4 -0.49,-0.68c-0.07,-0.28 -0.03,-0.54 0.11,-0.78c0.14,-0.24 0.34,-0.42 0.6,-0.52l-0.31,-0.53c-0.39,0.19 -0.67,0.46 -0.84,0.82c-0.17,0.35 -0.2,0.74 -0.09,1.16c0.12,0.46 0.38,0.81 0.77,1.05c0.39,0.24 0.82,0.3 1.27,0.18c0.42,-0.11 0.7,-0.31 0.84,-0.61c0.15,-0.3 0.25,-0.65 0.32,-1.03l0.05,-0.39c0.01,-0.03 0.02,-0.07 0.02,-0.11c0.01,-0.04 0.02,-0.08 0.02,-0.13c0.04,-0.16 0.1,-0.33 0.18,-0.48c0.08,-0.16 0.21,-0.26 0.39,-0.31c0.24,-0.06 0.46,-0.02 0.66,0.11c0.19,0.13 0.32,0.32 0.38,0.55c0.06,0.22 0.05,0.42 -0.01,0.58c-0.06,0.17 -0.17,0.32 -0.32,0.47l0.42,0.39c0.22,-0.21 0.37,-0.45 0.45,-0.72c0.08,-0.27 0.08,-0.56 0,-0.85c-0.1,-0.39 -0.31,-0.7 -0.62,-0.93c-0.32,-0.23 -0.68,-0.29 -1.09,-0.19c-0.38,0.1 -0.63,0.29 -0.76,0.56z" fill="#ffffff" id="svg_43"/>
    <polygon fill="#ffffff" id="svg_44" points="123.85 62.438 123.84 62.436 123.84 62.439"/>
    <rect fill="#ffffff" height="0.6" id="svg_45" transform="matrix(.9916 -.129 .129 .9916 -7.5326 16.356)" width="5.41" x="119.81" y="66.04"/>
    <polygon fill="#ffffff" id="svg_46" points="120.15 72.605 120.71 72.602 120.69 70.396 122.82 70.382 122.83 72.522 123.39 72.518 123.38 70.377 124.99 70.367 125 72.571 125.56 72.567 125.54 69.76 120.13 69.797"/>
    <polygon fill="#ffffff" id="svg_47" points="119.96 75.749 119.85 76.342 123.96 77.104 118.84 80.447 124.4 81.484 124.51 80.891 120.39 80.124 125.51 76.781"/>
    <path d="m122.13,84.5c-0.36,-0.13 -0.68,-0.13 -0.94,0.02c-0.27,0.15 -0.53,0.35 -0.77,0.59l-0.26,0.26c0,0.01 -0.01,0.01 -0.02,0.02c0,0 -0.01,0.01 -0.01,0.02c-0.19,0.19 -0.39,0.35 -0.59,0.48c-0.21,0.13 -0.45,0.14 -0.74,0.03c-0.28,-0.11 -0.48,-0.3 -0.59,-0.59c-0.1,-0.28 -0.1,-0.55 0,-0.83c0.1,-0.27 0.28,-0.46 0.54,-0.58c0.25,-0.11 0.51,-0.13 0.79,-0.07l0.05,-0.61c-0.42,-0.07 -0.81,-0.01 -1.15,0.18c-0.35,0.19 -0.6,0.49 -0.75,0.9c-0.17,0.44 -0.16,0.87 0.02,1.29c0.18,0.43 0.49,0.72 0.93,0.89c0.4,0.16 0.75,0.15 1.04,-0.01c0.3,-0.16 0.58,-0.38 0.85,-0.66l0.27,-0.28c0.03,-0.03 0.05,-0.05 0.08,-0.08c0.03,-0.03 0.06,-0.06 0.09,-0.09c0.13,-0.12 0.27,-0.22 0.43,-0.3c0.15,-0.08 0.32,-0.09 0.49,-0.02c0.24,0.09 0.39,0.24 0.48,0.47c0.08,0.22 0.08,0.44 -0.01,0.67c-0.08,0.21 -0.2,0.37 -0.34,0.47c-0.15,0.09 -0.33,0.16 -0.53,0.19l0.11,0.56c0.3,-0.04 0.56,-0.15 0.78,-0.32c0.23,-0.18 0.39,-0.41 0.5,-0.69c0.14,-0.38 0.15,-0.75 0.03,-1.12c-0.13,-0.38 -0.39,-0.64 -0.78,-0.79z" fill="#ffffff" id="svg_48"/>
    <polygon fill="#ffffff" id="svg_49" points="121.6 87.422 121.6 87.417 121.6 87.419"/>
    <rect fill="#ffffff" height="5.41" id="svg_50" transform="matrix(.4599 -.888 .888 .4599 -15.434 153.49)" width="0.6" x="118.16" y="86.73"/>
    <polygon fill="#ffffff" id="svg_51" points="116.99 95.602 116.99 95.6 116.98 95.6"/>
    <path d="m118.16,92.88c-0.32,-0.22 -0.63,-0.28 -0.92,-0.2c-0.3,0.09 -0.59,0.22 -0.88,0.41l-0.31,0.19c-0.01,0 -0.02,0.01 -0.02,0.01c-0.01,0.01 -0.02,0.01 -0.03,0.02c-0.22,0.14 -0.45,0.25 -0.68,0.33c-0.23,0.08 -0.47,0.04 -0.72,-0.13c-0.26,-0.18 -0.4,-0.41 -0.44,-0.71c-0.04,-0.29 0.02,-0.57 0.18,-0.81c0.17,-0.24 0.38,-0.39 0.66,-0.44c0.27,-0.06 0.53,-0.02 0.79,0.11l0.18,-0.59c-0.39,-0.16 -0.78,-0.19 -1.16,-0.08c-0.38,0.11 -0.69,0.35 -0.93,0.71c-0.26,0.39 -0.36,0.81 -0.28,1.26c0.08,0.45 0.32,0.81 0.71,1.08c0.36,0.24 0.7,0.31 1.02,0.22c0.32,-0.09 0.65,-0.24 0.97,-0.45l0.33,-0.21c0.03,-0.02 0.06,-0.04 0.1,-0.06c0.03,-0.03 0.07,-0.05 0.11,-0.07c0.15,-0.09 0.31,-0.15 0.48,-0.19c0.17,-0.05 0.33,-0.02 0.49,0.09c0.2,0.14 0.32,0.32 0.35,0.56c0.03,0.24 -0.02,0.45 -0.16,0.65c-0.13,0.19 -0.27,0.32 -0.44,0.38c-0.16,0.06 -0.35,0.09 -0.56,0.07l-0.01,0.57c0.3,0.03 0.58,-0.02 0.83,-0.14c0.26,-0.12 0.47,-0.3 0.64,-0.55c0.22,-0.34 0.32,-0.7 0.28,-1.09c-0.04,-0.39 -0.23,-0.7 -0.58,-0.94z" fill="#ffffff" id="svg_52"/>
    <path d="m55.51,43.9c0.25,0 0.44,-0.19 0.44,-0.44c0,-0.24 -0.19,-0.44 -0.44,-0.44c-0.24,0 -0.44,0.2 -0.44,0.44c0,0.25 0.2,0.44 0.44,0.44z" fill="#ffffff" id="svg_53"/>
    <path d="m111.31,43.03c-0.24,0 -0.44,0.19 -0.44,0.44c0,0.24 0.2,0.44 0.44,0.44c0.24,0 0.44,-0.2 0.44,-0.44c0,-0.25 -0.2,-0.44 -0.44,-0.44z" fill="#ffffff" id="svg_54"/>
    <path d="m55.65,98.52c-0.25,0 -0.44,0.2 -0.44,0.44c0,0.25 0.19,0.44 0.44,0.44s0.44,-0.19 0.44,-0.44c0,-0.24 -0.2,-0.44 -0.44,-0.44z" fill="#ffffff" id="svg_55"/>
    <path d="m111.74,98.37c-0.24,0 -0.44,0.2 -0.44,0.44c0,0.24 0.2,0.44 0.44,0.44s0.44,-0.2 0.44,-0.44c0,-0.24 -0.2,-0.44 -0.44,-0.44z" fill="#ffffff" id="svg_56"/>
   </g>
  </g>
  <path d="m83.57,27.33c-24.17,0 -43.83,19.66 -43.83,43.83c0,15.36 7.95,28.89 19.95,36.72l0.22,0.14c6.83,4.4 14.95,6.97 23.66,6.97c24.17,0 43.83,-19.67 43.83,-43.83s-19.66,-43.83 -43.83,-43.83zm0.05,2.68l0.97,0l0,-0.53l-0.97,0l0,-1.32c2.69,0.06 5.09,1.26 6.05,2.99l-6.05,0l0,-1.14zm7.16,1.67l0,0.88l-14.81,0l0,-0.88l14.81,0zm14.27,17.61l0,-5.86c8.7,6.64 13.88,17.08 13.88,28.02c0,1.51 -0.1,3 -0.29,4.48l-3.64,0s-0.02,-3.8 -0.03,-6.53l2.01,1.87l0.39,-0.42l-2.43,-2.24c0,-1.13 0,-3.59 0,-3.59c0.05,0.13 0.17,0.22 0.32,0.22c0.19,0 0.35,-0.15 0.35,-0.35c0,-0.19 -0.16,-0.34 -0.35,-0.34c-0.15,0 -0.27,0.08 -0.32,0.21l0,-0.91c0.05,0.13 0.17,0.22 0.32,0.22c0.19,0 0.35,-0.16 0.35,-0.35c0,-0.19 -0.16,-0.35 -0.35,-0.35c-0.15,0 -0.27,0.09 -0.32,0.22l0,-0.91c0.05,0.13 0.17,0.21 0.32,0.21c0.19,0 0.35,-0.15 0.35,-0.34c0,-0.19 -0.16,-0.35 -0.35,-0.35c-0.15,0 -0.27,0.09 -0.32,0.22l0,-0.4l-0.13,0c0.11,-0.05 0.19,-0.17 0.19,-0.3c0,-0.19 -0.16,-0.35 -0.35,-0.35s-0.34,0.16 -0.34,0.35c0,0.13 0.07,0.25 0.18,0.3l-0.12,0l0,0.36c-0.06,-0.1 -0.17,-0.18 -0.3,-0.18c-0.2,0 -0.35,0.16 -0.35,0.35c0,0.19 0.15,0.34 0.35,0.34c0.13,0 0.24,-0.07 0.3,-0.18l0,0.84c-0.06,-0.1 -0.17,-0.18 -0.3,-0.18c-0.2,0 -0.35,0.16 -0.35,0.35c0,0.19 0.15,0.35 0.35,0.35c0.13,0 0.24,-0.08 0.3,-0.18l0,0.84c-0.06,-0.11 -0.17,-0.18 -0.3,-0.18c-0.2,0 -0.35,0.15 -0.35,0.34c0,0.2 0.15,0.35 0.35,0.35c0.13,0 0.24,-0.07 0.3,-0.18l0,3.39l-3.02,0.01c0,-0.07 -0.04,-11.23 -0.04,-11.23c0.06,0.12 0.18,0.21 0.32,0.21c0.2,0 0.35,-0.15 0.35,-0.35s-0.15,-0.34 -0.35,-0.34c-0.14,0 -0.26,0.09 -0.32,0.21l0,-0.91c0.06,0.13 0.18,0.22 0.32,0.22c0.2,0 0.35,-0.16 0.35,-0.35c0,-0.19 -0.15,-0.35 -0.35,-0.35c-0.14,0 -0.26,0.09 -0.32,0.22l0,-0.91c0.06,0.13 0.18,0.22 0.32,0.22c0.2,0 0.35,-0.16 0.35,-0.35c0,-0.19 -0.15,-0.35 -0.35,-0.35c-0.14,0 -0.26,0.09 -0.32,0.22l0,-0.39l-0.12,0c0.11,-0.06 0.18,-0.17 0.18,-0.31c0,-0.19 -0.15,-0.34 -0.34,-0.34c-0.2,0 -0.35,0.15 -0.35,0.34c0,0.14 0.08,0.25 0.19,0.31l-0.13,0l0,0.35c-0.06,-0.1 -0.17,-0.18 -0.3,-0.18c-0.19,0 -0.35,0.16 -0.35,0.35c0,0.19 0.16,0.35 0.35,0.35c0.13,0 0.24,-0.08 0.3,-0.19l0,0.85c-0.06,-0.11 -0.17,-0.19 -0.3,-0.19c-0.19,0 -0.35,0.16 -0.35,0.35c0,0.19 0.16,0.35 0.35,0.35c0.13,0 0.24,-0.08 0.3,-0.18l0,0.84c-0.06,-0.11 -0.17,-0.18 -0.3,-0.18c-0.19,0 -0.35,0.15 -0.35,0.34s0.16,0.35 0.35,0.35c0.13,0 0.24,-0.07 0.3,-0.18l0,6.22c-1.08,-4.9 -3.81,-8.58 -5.69,-9.9l0,-3.76l1.48,0l0,-0.53l-1.48,0zm-0.54,49.88c-0.03,0.03 -0.07,0.07 -0.1,0.1c-0.07,0.08 -0.16,0.15 -0.26,0.2c-0.38,0.29 -0.96,0.4 -1.36,0.44c-0.37,0.05 -0.82,-0.32 -1.05,-0.56c0.55,-0.82 0.39,-1.87 0.38,-1.91c-0.01,-0.14 -0.44,-3.34 -0.76,-4.85c-0.27,-1.27 -0.05,-3.4 0.61,-6.02c0.1,-0.42 0.2,-0.89 0.28,-1.43c0.35,-2.16 0.46,-4.85 0.39,-6.3c-0.06,-1.44 -0.85,-3.42 -1.17,-4.18c0.07,-0.02 0.15,-0.04 0.22,-0.06c2.76,3.29 2.8,5.6 2.82,6.86l0.01,17.71c0,0 -0.01,0 -0.01,0zm0.01,0.69l0,5.55l-1.3,0l-0.02,-5.02c0.56,-0.1 1,-0.28 1.32,-0.53zm-7.68,4.09s-0.03,-0.79 -0.09,-1.15c-0.07,-0.52 -0.21,-0.93 -0.33,-1.21c0.11,-0.04 0.21,-0.1 0.3,-0.18c0.31,-0.26 0.45,-0.51 0.57,-0.71c0.13,-0.25 0.22,-0.4 0.49,-0.51c0.44,-0.07 0.77,-0.02 1.11,0.03c0.03,0 0.06,0 0.09,0.01c-0.31,0.72 -1.03,2.48 -1.01,3.17c0.01,0.19 0.05,0.37 0.11,0.55l0,0s0,0 0,0c0.06,0.13 0.36,0.76 0.47,0.95c0.2,0.34 0.43,0.72 0.63,1.21c0.1,0.24 0.11,0.44 0.02,0.62c-0.19,0.35 -0.76,0.53 -0.94,0.57c-0.51,0.05 -1.16,0.01 -1.31,-0.11c-0.13,-0.09 -0.1,-0.74 -0.09,-1.05c0.01,-0.24 -0.03,-2.06 -0.02,-2.19zm-18.04,5.94l1.26,-1.87l0.27,0l0,1.87l-1.53,0zm1.53,0.49l0,0.89c-0.63,-0.06 -1.19,-0.08 -1.61,-0.09c-1.16,-0.04 -1.9,0.08 -2.57,0.27l0,-3.43l3.27,0l-1.58,2.36l2.49,0zm-14.64,-2.88l0.01,-2.08l-1.58,-0.01l0,-1.06l2.55,0l0.01,0.02l0.02,-0.02l2.41,0c-0.28,0.4 -0.48,0.79 -0.54,0.98c-0.12,0.38 -0.08,0.92 0.74,1.36c0.16,0.09 0.37,0.13 0.59,0.13c0.66,0 1.46,-0.33 1.66,-0.65c0.2,-0.31 0.23,-1.13 0.15,-1.78l1.06,0c0.09,0.24 0.26,0.47 0.55,0.58l0.06,0.03c0.23,0.09 0.42,0.15 0.61,0.15c0.32,0 0.64,-0.17 1.16,-0.63c0.22,0.4 0.42,0.65 0.64,0.78c0.16,0.1 0.34,0.33 0.53,0.55c0.34,0.42 0.72,0.89 1.23,0.89c0.1,0 0.22,0 0.35,0.01c0.17,0 0.36,0.01 0.54,0.01c0.68,0 1.38,-0.09 1.51,-0.64c0.21,-0.9 -0.72,-1.29 -1.28,-1.52c-0.16,-0.07 -0.31,-0.13 -0.4,-0.19c-0.01,0 -0.02,-0.02 -0.03,-0.02l10.38,0c-0.18,0.16 -0.35,0.3 -0.54,0.41c-0.64,0.35 -1.28,1.1 -1.19,1.8c0.05,0.33 0.11,0.67 0.16,0.9l-21.36,0zm-2.11,-16.69l0,14.6l-1.32,0l0,-51.24c0.57,0.3 1.44,0.64 2.99,0.95c-0.03,0.24 -0.04,0.48 -0.04,0.73c0,1.54 0.5,3 1.44,4.22c-0.84,0.56 -2.05,1.49 -3.01,2.89c-0.62,0.83 -0.69,4.1 -0.69,4.14c-0.02,1.08 0.32,2.71 0.5,3.34c0.21,0.72 0.12,1.41 0.06,1.97c-0.03,0.22 -0.06,0.42 -0.06,0.6c-0.01,0.27 -0.13,0.81 -0.25,1.34c-0.13,0.6 -0.26,1.17 -0.25,1.48c0.02,0.72 0.35,1.35 0.63,1.77l0,10.42l-0.58,0.21l0.58,2.58zm-1.32,-52.25l0,-0.65l5.82,-3.18l0,8.38c-0.79,-1.1 -2.2,-2.17 -2.64,-2.5l0,-2.09l-0.55,0l0,2.12c-0.41,0.29 -1.6,1.16 -2.63,2.1l0,-3.65l1.26,0l0,-0.53l-1.26,0zm2.92,2.48c0.85,0.62 2.85,2.29 2.9,3.38l0,4.87l-5.82,0l0,-5.86c1.06,-1.03 2.47,-2.07 2.92,-2.39zm3.58,8.78c-0.87,0.48 -1.62,1.15 -2.21,1.95c-1.92,-0.37 -3.4,-0.83 -4.28,-1.31l-0.01,0.01l0,-0.65l6.5,0zm7.96,-11.26l0,-5.47l13.34,0l0,5.47l-1.12,0l0,0.53l1.12,0l0,10.2l-0.82,0c-0.39,-2.93 -4.93,-9.95 -5.58,-10.95l0,-2.66l-0.61,0l0,2.68c-0.7,1.04 -5.08,7.75 -5.46,10.93l-0.87,0l0,-10.2l1.12,0l0,-0.53l-1.12,0zm14.59,11.26c-1.21,0.68 -2.2,1.72 -2.82,2.96c-1.87,-0.26 -3.49,-0.72 -4.61,-1.27c0.18,-0.08 0.38,-0.3 0.38,-0.3c0.18,-0.21 0.29,-0.47 0.29,-0.75c0,-0.24 -0.07,-0.46 -0.19,-0.64l6.95,0zm-0.63,-0.53l0,-5.42c0,-0.81 2.67,-2.67 3.14,-3.01c0.8,0.59 2.66,2.17 2.82,3.24l0,5.14c-0.62,-0.19 -1.29,-0.29 -1.97,-0.29c-0.75,0 -1.48,0.12 -2.15,0.34l-1.84,0zm-0.3,9.58c-0.21,-0.35 -0.43,-0.72 -0.42,-1.07c0.02,-0.39 0.17,-0.64 0.34,-0.9c0.18,-0.29 0.37,-0.58 0.33,-1.02c-0.06,-0.67 0.13,-2.25 1.07,-2.63c0.79,-0.33 1.24,-0.15 1.55,0.11c-0.39,0.05 -0.73,0.17 -0.98,0.37c-0.67,0.53 -0.86,1.05 -0.96,1.53c-0.05,0.25 -0.21,1.9 -0.18,2.39c0.05,0.63 0.29,1.25 0.41,1.51l0,0.01c0,0 0.13,0.2 0.19,0.63c0.05,0.41 0.07,1.29 0.07,1.7c-0.28,0.08 -0.83,0.22 -1.35,0.23c-0.2,0.01 -0.4,0 -0.51,-0.01c-0.06,-0.01 -0.12,-0.01 -0.19,-0.02c-0.44,-0.09 -0.8,-0.18 -1.05,-0.25c-0.08,-0.3 -0.14,-0.74 0.03,-0.83c0.13,-0.05 0.32,-0.01 0.53,0.03c0.41,0.08 0.97,0.19 1.38,-0.41c0.3,-0.44 0.02,-0.91 -0.26,-1.37zm8.5,1.13c0.15,0.05 0.31,0.07 0.46,0.07c0.18,0 0.36,-0.03 0.51,-0.06c0.1,0.1 0.81,0.9 1.16,2.02c-0.29,-0.08 -1.03,-0.62 -1.03,-0.62c-0.05,-0.03 -0.95,-0.63 -2,-0.66c-0.41,-0.01 -0.97,0.17 -1.28,0.28c-0.01,-0.03 0,-0.08 0,-0.11c-0.03,-0.27 -0.08,-0.54 -0.13,-0.74c0.01,0 -0.03,-0.14 -0.06,-0.22c-0.01,-0.05 -0.02,-0.08 -0.02,-0.09l-0.01,0c-0.09,-0.28 -0.11,-0.59 -0.04,-0.87c0.22,-0.8 0.13,-2.24 0.06,-3.03c-0.04,-0.49 -0.39,-1.73 -1.13,-2.19c-0.25,-0.15 -0.53,-0.26 -0.83,-0.34c0.31,-0.25 0.68,-0.45 1.43,-0.41c0.32,0.01 0.66,0.23 0.94,0.6c0.47,0.6 0.72,1.47 0.6,2.11l-0.04,0.18c-0.2,1.01 -0.67,3.38 1.41,4.08zm2.66,-4.82c1.46,-0.28 2.33,-0.63 2.99,-0.99l0,13.65c-0.06,-0.09 -0.1,-0.17 -0.16,-0.26l-0.07,-0.13c-0.05,-0.08 -0.15,-0.2 -0.31,-0.38c-0.61,-0.68 -2.02,-2.28 -2.28,-4.36c-0.18,-1.43 -1.02,-2.53 -1.36,-2.93c0.8,-1.16 1.22,-2.51 1.22,-3.93c0,-0.23 -0.01,-0.45 -0.03,-0.67zm-0.08,-0.56c-0.15,-0.83 -0.45,-1.59 -0.86,-2.29c1.7,-0.34 3.01,-0.73 3.93,-1.17l0,2.38c-0.65,0.38 -1.49,0.76 -3.07,1.08zm-15.6,24.14c-0.25,-0.45 -0.53,-0.95 -0.77,-1.7c-0.53,-1.67 2.19,-3.04 3.35,-3.63c0.15,-0.07 0.28,-0.14 0.43,-0.22c0.94,-0.51 2.1,-1.14 3.49,-0.82c0.19,0.04 0.45,0.09 0.73,0.14c-0.16,0.55 -0.63,1.95 -1.24,2.8c-0.81,1.14 -2.11,2.6 -2.57,2.9c-0.61,0.4 -1.45,1.69 -1.73,2.66c-0.17,0.58 -0.63,2.16 -1.28,2.83c0.06,-0.67 0.13,-1.37 0.21,-2.12c0.16,-1.42 -0.19,-2.05 -0.62,-2.84zm-0.18,12.64c0.46,0.63 1.21,1.41 1.51,1.71c-0.53,0.9 -0.86,2.02 -1.16,3.45c-0.31,1.48 -0.24,2.52 0.24,3.19c0.48,0.67 1.23,0.76 1.68,0.82c0.47,0.05 0.99,-0.04 1.54,-0.14c0.11,0.34 0.3,1 0.3,1.46c0,0.15 0.01,0.29 0.02,0.42c0.03,0.44 0.04,0.7 -0.32,1.12l-0.2,0.22c-0.06,0.08 -0.12,0.14 -0.18,0.21l-7.89,0c-0.1,0.05 -0.69,0 -0.76,0c-0.05,0 -0.51,-0.04 -0.7,-0.03c-0.02,0.01 -0.04,0.02 -0.05,0.03l0,0l-1.68,0c-0.01,-0.14 -0.02,-0.33 -0.04,-0.55c1.08,-0.08 2.61,-0.52 2.9,-0.64c0.46,-0.2 0.75,-0.48 0.86,-0.85c0.22,-0.67 -0.23,-1.41 -0.5,-1.85c-0.06,-0.1 -0.11,-0.17 -0.13,-0.22l-0.01,0c-0.01,0 -0.01,-0.01 -0.01,-0.01c-0.18,-0.33 -0.34,-0.64 -0.43,-0.87c-0.27,-0.72 -0.26,-3.19 0.14,-4.94c0.24,-1.01 0.66,-1.55 1.1,-2.12c0.3,-0.38 0.62,-0.78 0.86,-1.33c0.38,-0.86 0.24,-1.89 0.02,-3.24l-0.07,-0.39c-0.19,-1.12 -0.33,-1.92 -0.07,-2.78c0.03,-0.09 0.08,-0.18 0.13,-0.29c0.3,-0.56 0.79,-1.51 0.25,-3.69c-0.18,-0.72 -0.08,-1.27 0.03,-1.85c0.11,-0.65 0.24,-1.33 -0.06,-2.23c-0.22,-0.65 0.07,-2.07 0.33,-2.65c0.53,0.85 1.29,1.52 1.7,1.84c-0.45,0.59 -0.68,1.26 -0.44,2.02c0.26,0.8 0.55,1.32 0.8,1.79c0.43,0.77 0.71,1.28 0.57,2.53c-0.09,0.77 -0.16,1.5 -0.22,2.19c-0.11,1.19 -0.21,2.22 -0.37,3.14c-0.2,1.24 -0.38,3.6 0.31,4.53zm15.26,-24.15c-0.45,-0.47 -1.44,-0.21 -1.95,0.01c-0.47,0.21 -1.33,0.74 -1.26,1.27c0.04,0.31 0.36,0.41 0.61,0.5c0.09,0.02 0.28,0.08 0.3,0.11c0.05,0.25 -0.03,0.58 -0.17,0.72c-0.07,0.06 -0.19,0.21 -0.33,0.39c-0.61,-0.45 -0.99,-1.16 -0.99,-1.93c0,-1.31 1.07,-2.39 2.39,-2.39c1.32,0 2.39,1.08 2.39,2.39c0,0.54 -0.19,1.06 -0.52,1.49c-0.15,0.02 -0.3,0.03 -0.37,0.01c-0.06,-0.02 -0.16,-0.06 -0.19,-0.11c-0.05,-0.11 0.06,-0.4 0.16,-0.65c0.21,-0.52 0.48,-1.24 -0.07,-1.81zm-2.88,4.23c0.04,-0.32 0.58,-1.05 0.77,-1.24c0.28,-0.26 0.42,-0.78 0.33,-1.2c-0.07,-0.32 -0.4,-0.43 -0.66,-0.52c-0.09,-0.03 -0.24,-0.07 -0.25,-0.05c0.02,-0.11 0.39,-0.48 0.95,-0.72c0.56,-0.25 1.19,-0.31 1.36,-0.14c0.3,0.31 0.18,0.7 -0.04,1.26c-0.15,0.38 -0.3,0.75 -0.14,1.07c0.09,0.18 0.26,0.31 0.51,0.38c0.19,0.06 0.4,0.03 0.63,0c0.5,-0.06 1.07,-0.14 1.68,0.59c0.14,0.18 0.01,0.67 -0.09,1.06c-0.14,0.5 -0.27,0.98 -0.03,1.29c0.03,0.04 0.08,0.09 0.14,0.14c-0.12,0.07 -0.28,0.15 -0.48,0.24c-0.39,-0.48 -0.44,-0.66 -0.85,-0.85c-0.08,-0.04 -0.09,-0.2 -0.08,-0.41c0,-0.2 0,-0.47 -0.25,-0.56c-0.26,-0.09 -0.68,-0.01 -1.28,0.84c-0.18,0.28 -0.57,0.3 -0.95,0.3c0.03,-0.07 0.06,-0.14 0.08,-0.19c0.13,-0.29 0.25,-0.57 0.05,-0.75c-0.19,-0.18 -0.46,-0.04 -0.58,0.02c-0.25,0.14 -0.62,0.24 -0.98,0.31c0.07,-0.31 0.12,-0.61 0.16,-0.87zm0.85,1.13c-0.12,0.27 -0.22,0.53 -0.09,0.72c0.04,0.06 0.14,0.16 0.32,0.16l0.01,0l0.12,0c0.46,-0.01 1.09,-0.02 1.45,-0.53c0.25,-0.37 0.45,-0.53 0.56,-0.6l0,0.02c0,0.26 -0.01,0.7 0.39,0.89c0.21,0.09 0.35,0.28 0.62,0.57c-0.65,0.25 -1.49,0.5 -2.35,0.51c-1.19,0.01 -2.29,-0.3 -2.9,-0.52c0.08,-0.05 0.16,-0.11 0.23,-0.18c0.21,-0.18 0.36,-0.44 0.47,-0.73c0.38,-0.06 0.81,-0.16 1.17,-0.31zm1.23,2.25c0.27,-0.01 0.54,-0.04 0.8,-0.08c0.28,0.64 1.11,2.68 1.18,4.09c0.07,1.41 -0.04,4.06 -0.39,6.19c-0.01,0.06 -0.01,0.12 -0.03,0.18c-3.03,-0.71 -4.67,0.81 -6.41,2.41c-1.2,1.11 -2.44,2.26 -4.24,2.78c-1.42,0.41 -2.4,0.95 -3.12,1.69c0.23,-0.66 0.77,-1.65 2.02,-2.4c0.67,-0.4 1.09,-1.11 1.5,-1.8c0.27,-0.46 0.55,-0.94 0.91,-1.31c0.91,-0.97 1.41,-1.46 2.15,-2.11l0.25,-0.21c0.66,-0.57 1.28,-1.12 2.17,-2.33c0.87,-1.19 2.03,-3.2 2.7,-5.26c0.29,-0.9 0.44,-1.48 0.51,-1.84zm0.71,17.84c0.31,1.49 0.75,4.77 0.75,4.81c0.01,0.01 0.15,0.97 -0.34,1.62c-0.25,0.34 -0.64,0.53 -1.16,0.6c-0.47,0.05 -0.79,0.01 -1.14,-0.04c-0.36,-0.05 -0.74,-0.1 -1.32,0c-0.5,0.18 -0.66,0.47 -0.81,0.75c-0.11,0.19 -0.21,0.37 -0.45,0.57c-0.02,0.02 -0.05,0.03 -0.07,0.04c0.1,-0.81 0.39,-2.95 0.47,-3.62c0.29,-2.35 -0.16,-4.71 -1.28,-6.83c-0.44,-0.83 -0.01,-2.21 0.09,-2.51c0.02,-0.01 0.04,-0.03 0.06,-0.05c1.7,-1.58 3.18,-2.95 5.96,-2.28c-0.05,0.24 -0.1,0.47 -0.15,0.68c-0.48,1.9 -0.98,4.54 -0.61,6.26zm1.75,7.73l0.02,3.52l-3.98,0c-0.08,-0.19 -0.14,-0.37 -0.14,-0.57c-0.02,-0.56 0.69,-2.32 1.03,-3.1c0.19,0 0.39,0 0.64,-0.03c0.49,-0.06 0.9,-0.23 1.22,-0.5c0.24,0.24 0.69,0.62 1.21,0.68zm-12.27,1.84c0,-0.11 -0.01,-0.24 -0.01,-0.38c0,-0.5 -0.19,-1.17 -0.31,-1.55c0.4,-0.07 0.82,-0.14 1.27,-0.16c0.41,-0.01 0.78,0.04 1.13,0.12c-0.07,0.09 -0.14,0.18 -0.22,0.3c-0.87,1.22 -0.62,2.39 -0.47,2.7c0.02,0.04 0.06,0.1 0.09,0.17c0.18,0.31 0.47,0.82 0.41,1.29c-0.05,0.4 -0.91,0.72 -1.37,0.8c-0.4,0.07 -0.9,0.29 -1.53,0.66c-0.5,0.3 -1.32,0.8 -1.77,1.08c-0.05,-0.22 -0.1,-0.5 -0.14,-0.78c-0.05,-0.42 0.44,-0.99 0.93,-1.26c0.38,-0.21 0.68,-0.51 1.01,-0.87l0.03,0l0,-0.04c0.1,-0.11 0.2,-0.23 0.31,-0.35l0.19,-0.22c0.51,-0.58 0.48,-1.03 0.45,-1.51zm1.86,0.79c-0.09,-0.18 -0.3,-1.13 0.43,-2.15c0.15,-0.22 0.26,-0.36 0.33,-0.46c0.49,0.17 0.89,0.38 1.21,0.56l0.15,0.07c0.46,0.26 1.03,0.57 1.57,0.6c0.11,0.23 0.28,0.64 0.35,1.2c0.05,0.3 0.09,0.74 0.1,1.07l-3.67,0c-0.1,-0.26 -0.3,-0.58 -0.39,-0.74c-0.03,-0.06 -0.06,-0.11 -0.08,-0.15zm1.64,-10.86c-0.36,-1.16 0.01,-2.4 0.11,-2.69c0.33,-0.24 0.64,-0.5 0.94,-0.77c-0.12,0.63 -0.18,1.47 0.16,2.11c1.07,2.02 1.49,4.28 1.22,6.52c-0.08,0.71 -0.41,3.12 -0.5,3.77c-0.38,-0.07 -0.82,-0.31 -1.2,-0.52l-0.15,-0.08c-0.29,-0.15 -0.64,-0.34 -1.05,-0.5c0.13,-0.27 0.57,-1.2 0.7,-1.78c0.18,-0.79 0.47,-3.82 -0.23,-6.06zm-2.64,-1.26c0.79,-0.23 1.47,-0.56 2.08,-0.96c-0.13,0.6 -0.22,1.5 0.06,2.38c0.68,2.15 0.36,5.13 0.22,5.79c-0.12,0.5 -0.52,1.35 -0.65,1.63c-0.04,0.01 -0.07,0.03 -0.11,0.06c-0.4,-0.11 -0.85,-0.19 -1.34,-0.19c-0.06,0 -0.13,0 -0.19,0c-0.63,0.03 -1.21,0.14 -1.72,0.24c-0.59,0.11 -1.09,0.2 -1.52,0.15c-0.5,-0.06 -1.01,-0.15 -1.33,-0.6c-0.37,-0.53 -0.42,-1.46 -0.15,-2.78c0.7,-3.29 1.5,-4.81 4.65,-5.72zm-18.53,12.92l-1.06,0c0,-0.02 -0.05,-0.18 -0.07,-0.3l0.25,-0.83c0.31,0.09 0.64,0.15 0.98,0.19c-0.06,0.37 -0.1,0.6 -0.1,0.61c0,0.01 -0.01,0.15 0,0.33zm-7.23,-7.66l1.44,-0.76l0.99,7.16l-0.81,0.75l-1.62,-7.15zm1.14,7.7l-2.45,0l0,-10.73l2.45,10.73zm-1.45,-22.03c0.05,0.1 0.07,0.18 0.09,0.26c-0.07,0.28 -0.22,0.51 -0.38,0.75c-0.19,0.29 -0.39,0.59 -0.43,0.98c-0.09,0.74 0.16,1.39 0.17,1.41l0.27,0.79l0.41,0.12c0.04,-0.04 0.15,-0.13 0.3,-0.25l0.18,1.31l-1.61,0.58l0,-9.86l0.02,-0.01c0.17,0.18 0.38,0.31 0.55,0.42c0.15,0.1 0.29,0.19 0.38,0.28c0.24,0.26 0.17,0.64 0.03,1.24c-0.14,0.6 -0.3,1.29 0.02,1.98zm0.18,2.25l0.17,1.21c-0.09,0.07 -0.18,0.14 -0.26,0.21l-0.15,-0.45c-0.01,0 -0.21,-0.55 -0.14,-1.17c0.03,-0.27 0.17,-0.49 0.35,-0.75c0.21,-0.32 0.45,-0.68 0.49,-1.17l-0.02,0c0.37,-0.42 0.99,-0.2 1.23,-0.1c0.33,0.21 0.5,0.82 0.45,1.45c0.01,0.02 0.02,0.02 0.03,0.04c0.01,0.03 0.03,0.05 0.04,0.08c-0.32,0.38 -0.9,0.91 -1.5,1.43l-0.12,-0.86l-0.57,0.08zm2.47,-0.18c0.02,0.03 0.05,0.07 0.07,0.1c-0.02,0.34 -0.05,0.74 -0.08,1.18c-0.03,0.4 -0.06,0.84 -0.09,1.32l-1.39,0.5l-0.21,-1.53c0.55,-0.46 1.25,-1.07 1.7,-1.57zm-0.13,3.22c-0.05,1.27 -0.03,2.76 0.18,4.44c0.15,1.22 0.3,1.98 0.42,2.5l-0.91,0.46l-0.97,-6.94l1.28,-0.46zm1.17,14.24l0.1,0.46l-0.51,0.4l-0.99,-7.1l0.98,-0.5c0.04,0.11 0.07,0.21 0.1,0.3c0.1,0.31 0.15,0.47 0.15,0.88c0,0.69 -0.02,1.05 -0.05,1.58c-0.02,0.29 -0.04,0.63 -0.06,1.09c-0.06,1.39 0.18,2.44 0.28,2.89zm2.28,1.81c-0.05,-0.02 -0.1,-0.04 -0.15,-0.05c-0.59,-0.1 -0.99,0.23 -1.05,0.25c-0.01,0.02 -0.03,0.03 -0.04,0.04l-0.38,-1.71c0.06,0.04 0.12,0.08 0.19,0.12c0.3,0.17 0.89,0.48 1.62,0.72l-0.19,0.63zm-2.04,-0.73l0.31,1.42l-2.09,0l1.78,-1.42zm1.53,1.23c0.08,-0.02 0.16,-0.02 0.23,-0.02c0.1,0 0.25,0.21 0.28,0.28c0.2,0.6 0.14,1.72 0.02,1.92c-0.12,0.18 -1.13,0.57 -1.56,0.34c-0.53,-0.29 -0.54,-0.54 -0.48,-0.75c0.13,-0.43 0.93,-1.64 1.51,-1.77zm2.25,-1.3c-1.28,-0.15 -2.45,-0.74 -2.92,-1c-0.39,-0.22 -0.6,-0.62 -0.67,-0.75c-0.09,-0.52 -0.17,-1.25 -0.13,-2.13c0.02,-0.46 0.04,-0.79 0.05,-1.07c0.03,-0.53 0.05,-0.91 0.05,-1.62c0,-0.5 -0.07,-0.72 -0.18,-1.06c-0.15,-0.47 -0.38,-1.17 -0.64,-3.26c-0.33,-2.57 -0.17,-4.7 -0.06,-6.26c0.02,-0.22 0.03,-0.43 0.05,-0.62c0.01,0.02 0.02,0.03 0.02,0.06l0,0c0,0.01 0.01,0.03 0.02,0.04c0,0.02 0,-0.12 -0.01,-0.29c0.34,0.33 0.74,0.8 1.02,1.37c0.24,0.5 0.36,0.86 0.46,1.17c0.14,0.44 0.26,0.81 0.64,1.32c0.55,0.71 1.97,1.95 2.4,2.31c-0.11,0.75 -0.14,1.54 -0.04,2.35c0.08,0.62 0.16,1.15 0.23,1.61c0.21,1.46 0.34,2.34 0.19,3.97c-0.11,1.3 -0.33,2.84 -0.48,3.86zm-3.64,-23.53c-0.1,-0.44 -0.14,-0.81 -0.19,-1.12c-0.18,-1 -0.25,-1.38 -0.12,-2.24c0.14,-0.99 -0.2,-1.55 -0.53,-2.08c-0.09,-0.14 -0.18,-0.29 -0.26,-0.44c-0.34,-0.66 -0.7,-1.52 -0.44,-2.4c0.21,-0.74 0.64,-2.59 0.03,-3.72c-0.43,-0.81 -1.1,-1.85 -1.85,-2.2c-0.59,-0.29 -1.89,-0.39 -2.08,-0.41c0.08,-0.46 0.19,-0.83 0.32,-1c0.11,-0.16 0.23,-0.31 0.34,-0.46c0.43,0.4 2.36,1.96 6.93,1.99l0.09,0c0.22,0 0.43,-0.01 0.64,-0.02c0.22,0.64 0.75,2.38 0.66,3.01c-0.04,0.26 -0.12,0.39 -0.2,0.53c-0.19,0.33 -0.3,0.61 -0.1,1.46c0.12,0.51 0.24,0.88 0.34,1.2c0.15,0.46 0.24,0.78 0.24,1.19c0,0.27 -0.11,0.58 -0.24,0.91c-0.19,0.51 -0.41,1.1 -0.24,1.69c0.1,0.36 0.21,0.64 0.31,0.89c0.14,0.37 0.27,0.68 0.34,1.18c0.06,0.4 0.01,0.55 -0.07,0.75c-0.07,0.19 -0.16,0.43 -0.16,0.86c0,0.67 0.57,1.41 1.03,2.02c0.14,0.18 0.27,0.36 0.36,0.49c0.03,0.04 1,2.23 1.21,2.69l0,0.01s0.01,0.01 0.02,0.03c0,0.02 0.01,0.02 0.01,0.03c-0.27,0.64 -0.94,2.14 -1.36,2.94c-0.26,0.48 -0.87,1.76 -1.19,3.36c-0.57,-0.49 -1.65,-1.46 -2.08,-2.03c-0.33,-0.43 -0.43,-0.73 -0.56,-1.16c-0.11,-0.31 -0.23,-0.71 -0.49,-1.24c-0.47,-0.96 -1.23,-1.65 -1.59,-1.93c-0.02,-0.1 -0.05,-0.18 -0.08,-0.22c0.07,-0.13 0.13,-0.26 0.2,-0.38c0.11,-0.22 1.22,-2.03 0.76,-4.18zm7.23,-21.13c0.05,0.43 0.11,0.85 -0.26,1.22c-0.38,0.4 -1.13,0.21 -1.51,0.1c0.12,-0.13 0.21,-0.24 0.26,-0.3c0.14,-0.18 1.38,-1.77 0.98,-2.87c-0.16,-0.44 -0.51,-0.51 -0.77,-0.57c-0.15,-0.03 -0.3,-0.06 -0.42,-0.15c-0.1,-0.07 -0.13,-0.16 -0.19,-0.32c-0.08,-0.22 -0.19,-0.53 -0.61,-0.69c-0.14,-0.06 -0.27,-0.05 -0.41,-0.05c-0.17,0 -0.41,0.01 -0.78,-0.12c-0.78,-0.27 -1.49,0.28 -1.79,0.65c-0.11,0.15 -0.14,0.24 -0.17,0.35c-0.03,0.1 -0.06,0.24 -0.29,0.62c-0.32,0.54 -0.79,0.85 -0.95,0.95c-0.06,-0.03 -0.11,-0.07 -0.17,-0.1c-0.24,-0.15 -0.67,-0.42 -0.67,-0.55c0.01,-0.09 0.07,-0.14 0.28,-0.26c0.2,-0.12 0.44,-0.26 0.57,-0.54c0.05,-0.1 0.09,-0.25 0.13,-0.42c0.09,-0.31 0.19,-0.69 0.4,-0.87c0.11,-0.09 0.57,-0.12 0.87,-0.14c0.37,-0.02 0.69,-0.04 0.9,-0.15c0.16,-0.07 0.29,-0.18 0.4,-0.26c0.18,-0.15 0.32,-0.26 0.54,-0.27c0.31,-0.02 0.43,0.15 0.57,0.35c0.1,0.14 0.22,0.33 0.45,0.35c0.18,0.02 0.36,-0.05 0.53,-0.13c0.24,-0.09 0.4,-0.15 0.53,-0.09c0.15,0.07 0.29,0.42 0.39,0.67c0.11,0.27 0.2,0.51 0.36,0.64c0.07,0.06 0.12,0.12 0.16,0.17c0.12,0.15 0.26,0.31 0.66,0.47c0.11,0.04 0.19,0.13 0.24,0.27c0.11,0.32 0.01,0.79 -0.14,1.05c-0.18,0.3 -0.13,0.65 -0.09,0.99zm-5.51,-1.85c0.27,-0.45 0.32,-0.65 0.35,-0.77c0.02,-0.07 0.02,-0.08 0.07,-0.15c0.01,-0.01 0.57,-0.7 1.21,-0.48c0.46,0.16 0.76,0.15 0.97,0.15c0.09,0 0.16,-0.01 0.2,0.01c0.18,0.07 0.23,0.17 0.3,0.38c0.07,0.18 0.15,0.4 0.38,0.57c0.21,0.16 0.44,0.2 0.62,0.24c0.25,0.05 0.33,0.07 0.39,0.23c0.25,0.7 -0.57,1.95 -0.89,2.36c-0.44,0.51 -1.21,1.27 -1.53,1.37c-0.45,0.13 -0.97,0 -1.18,-0.15c-0.18,-0.1 -0.77,-0.57 -1.15,-0.87c0.01,-0.02 0.01,-0.04 0.02,-0.07c0.16,-0.97 -0.17,-1.29 -0.59,-1.71c0,0 -0.1,-0.09 -0.12,-0.1c0.26,-0.19 0.65,-0.52 0.95,-1.01zm0.6,4.21c0.25,0.16 0.65,0.28 1.07,0.28c0.18,0 0.37,-0.03 0.55,-0.08c0.1,-0.03 0.21,-0.09 0.32,-0.16l1.85,1c-0.28,0.11 -0.58,0.28 -0.8,0.55l-0.12,0.15c-0.4,0.49 -0.85,1.05 -1.56,1.11c-0.38,0.02 -0.62,-0.14 -0.93,-0.36c-0.33,-0.23 -0.7,-0.49 -1.3,-0.58c-0.47,-0.08 -0.82,-0.09 -1.1,-0.1c-0.4,-0.01 -0.63,-0.02 -0.94,-0.17c-0.52,-0.26 -1.01,-1.02 -1.01,-1.02l-0.22,-0.48c0.05,-0.03 0.1,-0.07 0.14,-0.09c1,-0.57 2.23,-0.38 2.96,-0.88c0.36,0.28 0.9,0.71 1.09,0.83zm-3.19,2.11c0.4,0.2 0.73,0.21 1.15,0.23c0.28,0.01 0.6,0.02 1.04,0.09c0.48,0.07 0.78,0.29 1.08,0.49c0.32,0.22 0.65,0.46 1.14,0.46c0.04,0 0.09,-0.01 0.13,-0.01c0.94,-0.08 1.49,-0.76 1.93,-1.3l0.12,-0.15c0.37,-0.44 1.11,-0.53 1.12,-0.53l0.06,-0.01l0.02,-0.01c0.16,0.33 0.6,1.15 0.96,1.45c-0.2,0.14 -1.94,1.34 -5.64,1.34l-0.09,0c-4.5,-0.02 -6.32,-1.61 -6.59,-1.87c0.74,-0.84 1.53,-1.45 2.13,-1.86l0.2,0.44c0.02,0.03 0.58,0.91 1.24,1.24zm14.2,17.99c0.08,0.32 0.12,0.61 0.16,0.87c-0.35,0.17 -1.39,0.8 -1.77,2.41c-0.23,0.95 -0.32,1.61 -0.38,2.09c-0.06,0.43 -0.1,0.72 -0.2,0.97c-0.19,0.49 -2.15,2.98 -3.2,4.02c-0.06,-0.16 -0.1,-0.32 -0.13,-0.45c-0.09,-0.41 0.22,-0.86 0.54,-1.33c0.33,-0.48 0.67,-0.97 0.71,-1.55c0.02,-0.49 -0.09,-0.71 -0.21,-0.94c-0.16,-0.32 -0.39,-0.76 -0.33,-2.5c0.08,-2.56 0.53,-4.44 0.63,-4.84c0.57,-0.64 1.79,-1.65 2.08,-1.89c0.23,0.12 0.48,0.19 0.73,0.19c0.05,0 0.09,0 0.14,-0.01c0.46,-0.05 0.97,-0.44 1.3,-0.74c0.13,0.61 0.04,1.11 -0.05,1.64c-0.11,0.6 -0.23,1.23 -0.02,2.06zm-0.32,6.73l0.07,0.39c0.22,1.3 0.34,2.21 0.02,2.94c-0.22,0.49 -0.5,0.84 -0.79,1.22c-0.46,0.59 -0.94,1.2 -1.2,2.32c-0.4,1.75 -0.46,4.34 -0.13,5.24c0.11,0.27 0.28,0.59 0.46,0.93c0.01,0.02 0.02,0.03 0.03,0.05l0.02,0c0.03,0.06 0.07,0.13 0.13,0.22c0.22,0.36 0.59,0.96 0.45,1.42c-0.07,0.21 -0.26,0.38 -0.57,0.52c-0.26,0.11 -1.74,0.52 -2.73,0.6c-0.09,-1.19 -0.24,-2.85 -0.45,-3.63c-0.35,-1.28 0.09,-3.28 0.38,-4.36c0.31,-1.12 -0.2,-2.6 -0.58,-3.67c1.01,-0.94 3.26,-3.75 3.51,-4.39c0.12,-0.31 0.17,-0.63 0.23,-1.08c0.06,-0.47 0.15,-1.12 0.37,-2.05c0.28,-1.17 0.95,-1.73 1.31,-1.96c0.04,1 -0.23,1.53 -0.41,1.89c-0.08,0.14 -0.14,0.26 -0.17,0.37c-0.3,0.98 -0.15,1.89 0.05,3.03zm0.24,-11.01c-0.26,0.26 -0.82,0.76 -1.21,0.8c-0.78,0.09 -1.65,-1.01 -2.03,-1.6c0.46,-0.54 1.37,-1.61 1.68,-1.85c0.18,-0.14 0.36,-0.19 0.55,-0.14c0.49,0.11 0.94,0.8 1.09,1.1c-0.11,0.58 -0.16,1.21 -0.08,1.69zm-3.79,-0.69c0.02,0.03 0.21,0.35 0.51,0.72l-0.77,0.19l-1.94,-7.84l1.41,-0.34l1.51,6.15c-0.34,0.39 -0.63,0.74 -0.69,0.82l-0.12,0.14l0.09,0.16zm1.91,-2.38c-0.17,0.14 -0.46,0.44 -0.76,0.78l-1.43,-5.8l1.89,-0.46l1.23,5.24c-0.32,-0.06 -0.64,0.02 -0.93,0.24zm-4.75,-4.93l2.19,8.87l1.55,-0.4c0.12,0.13 0.26,0.26 0.4,0.37c-0.33,0.27 -1.7,1.41 -2.19,2.06c-0.57,0.77 -0.9,1.68 -1.13,2.58c-0.17,0.69 -0.51,1.34 -0.77,1.77c-0.39,-0.86 -1.29,-2.8 -1.46,-3.03c-0.39,-0.51 -0.92,-1.21 -0.92,-1.7c0,-0.34 0.06,-0.5 0.12,-0.67c0.09,-0.24 0.18,-0.48 0.1,-1.02c-0.08,-0.55 -0.22,-0.91 -0.37,-1.29c-0.1,-0.25 -0.2,-0.51 -0.3,-0.84c-0.12,-0.43 0.06,-0.91 0.24,-1.37c0.13,-0.36 0.27,-0.73 0.27,-1.09c0,-0.2 -0.02,-0.37 -0.05,-0.54l0,0c0,0 0,-0.29 0.5,-1.11c0.25,-0.41 0.3,-0.78 0.34,-1.12c0.07,-0.56 0.15,-1.2 1.11,-2.37c1.27,-1.55 2.07,-2.15 2.31,-2.31c0.43,0.6 1.32,1.75 1.74,2.3l-3.68,0.91zm-0.78,-1.23c-1.05,1.29 -1.14,2.03 -1.22,2.63c-0.05,0.33 -0.08,0.6 -0.27,0.92c-0.12,0.2 -0.21,0.36 -0.29,0.51c-0.09,-0.29 -0.2,-0.64 -0.31,-1.11c-0.17,-0.7 -0.08,-0.85 0.05,-1.06c0.09,-0.16 0.2,-0.36 0.26,-0.72c0.12,-0.78 -0.45,-2.54 -0.64,-3.12c2.75,-0.19 4.22,-1.03 4.66,-1.32c0.01,0.04 0.02,0.08 0.02,0.12c0.04,0.24 0.08,0.49 0.18,0.73c-0.28,0.18 -1.13,0.81 -2.44,2.42zm-1.85,36.9c0,-0.03 0.46,-2.84 0.65,-5c0.15,-1.69 0.01,-2.65 -0.2,-4.09c-0.07,-0.47 -0.14,-0.99 -0.22,-1.61c-0.35,-2.77 1,-5.48 1.27,-6c0.47,-0.88 1.19,-2.53 1.43,-3.09c0,0 0,0 0.01,0c0,-0.01 0,-0.02 0,-0.02c0.04,-0.09 0.07,-0.15 0.07,-0.16l0,-0.01c0.39,-0.57 0.67,-1.33 0.9,-2.07c0.14,-0.46 0.3,-0.92 0.49,-1.35c-0.17,0.84 -0.35,2.07 -0.4,3.58c-0.06,1.88 0.2,2.39 0.4,2.76c0.1,0.2 0.16,0.32 0.14,0.67c-0.02,0.43 -0.32,0.86 -0.61,1.28c-0.38,0.55 -0.76,1.11 -0.62,1.75c0.06,0.28 0.18,0.64 0.33,1.05c0.35,1.02 0.83,2.41 0.57,3.37c-0.38,1.38 -0.75,3.31 -0.39,4.64c0.26,0.94 0.43,3.39 0.49,4.39c-0.32,-0.22 -0.74,-0.4 -1.28,-0.33c-0.45,0.05 -0.75,0.18 -0.94,0.31c-0.13,0.05 -0.19,0.13 -0.23,0.23c-0.87,0.84 -1,0.8 -1.47,0.61l-0.07,-0.02c-0.38,-0.15 -0.32,-0.89 -0.32,-0.89zm3.09,0.28c0.7,-0.08 1.14,0.4 1.44,0.72c0.1,0.11 0.19,0.2 0.28,0.26c0.11,0.07 0.28,0.14 0.47,0.22c0.62,0.26 1.08,0.49 0.97,0.92c-0.06,0.27 -1.11,0.24 -1.51,0.22c-0.14,-0.01 -0.27,-0.01 -0.37,-0.01c-0.26,0 -0.56,-0.37 -0.83,-0.69c-0.22,-0.27 -0.42,-0.52 -0.66,-0.67c-0.15,-0.09 -0.32,-0.33 -0.52,-0.72c0.1,-0.09 0.31,-0.2 0.73,-0.25zm16.21,-32.01c-1.58,-0.36 -2.9,0.36 -3.91,0.9c-0.1,0.06 -0.22,0.12 -0.37,0.19c-0.77,0.39 -1.99,1.01 -2.82,1.85c-0.41,-0.33 -1.26,-1.07 -1.74,-1.97c2.1,-1.3 5.15,-2.96 5.75,-2.82c2.14,0.56 3.19,0.1 3.7,-0.11c0.09,-0.04 0.18,-0.08 0.23,-0.09c0.17,-0.03 0.3,0.01 0.59,0.09c0.2,0.06 0.46,0.14 0.83,0.21c1.1,0.23 1.3,0.51 1.33,0.62c0.04,0.15 -0.11,0.41 -0.43,0.71c-0.96,0.92 -2.45,0.58 -3.16,0.42zm-2.96,-2.36c-0.97,-0.26 -4.82,2.05 -6.1,2.85c-0.06,-0.18 -0.11,-0.37 -0.13,-0.55c-0.07,-0.56 0.36,-1.55 0.82,-1.93c0.09,-0.07 2.22,-1.86 2.56,-5.48c0.1,-1.04 1.49,-2.16 1.87,-2.45c0.26,0.07 0.64,0.17 1.11,0.26c0.16,0.03 0.3,0.05 0.43,0.05c0,0 0,-0.01 0,-0.01c0.08,0 0.18,0 0.28,0c0.03,0 0.07,0 0.1,0c0.48,-0.01 0.97,-0.11 1.29,-0.2c-0.05,0.39 -0.13,0.93 -0.21,1.17c-0.03,0.08 -0.06,0.17 -0.1,0.26c-0.18,0.5 -0.31,0.87 -0.28,1.12c0,0.03 0.01,0.07 0.01,0.11c0.02,0.33 0.07,1.09 0.9,1.26c0.28,0.06 0.64,0.1 1,0.1c0.49,0 0.99,-0.07 1.39,-0.27c0.62,-0.31 1.41,-1.14 1.68,-2.22c0.06,-0.24 0.13,-0.48 0.19,-0.72c0.13,-0.48 0.32,-1.26 0.32,-1.26c0.23,-0.09 0.81,-0.33 1.33,-0.33c0.55,0 1.1,0.23 1.52,0.46c0.63,0.47 1.18,0.83 1.65,0.85c0.01,0.07 0.03,0.13 0.04,0.2c0.01,0.08 0.03,0.15 0.04,0.22c-0.24,-0.06 -0.58,-0.09 -1.03,-0.04c-1.04,0.12 -2.5,0.89 -2.93,1.57c-0.81,1.3 -2.66,1.76 -2.66,1.76c-0.48,0.15 -2.57,0.88 -2.75,1c-0.52,0.34 -1.75,1.8 -2.14,2.27c-0.07,-0.02 -0.13,-0.03 -0.2,-0.05zm2.73,-9.72c0.42,-0.02 0.7,-0.22 0.94,-0.39c0.19,-0.15 0.37,-0.27 0.61,-0.3c0.27,-0.04 0.51,0.11 0.81,0.3c0.34,0.21 0.76,0.46 1.32,0.47c0.03,0.11 0.06,0.21 0.09,0.3l0.01,0c0.05,0.18 0.12,0.49 0.15,0.8c0.03,0.33 -0.16,1.05 -0.35,1.75c-0.07,0.25 -0.13,0.49 -0.19,0.74c-0.22,0.87 -0.88,1.6 -1.41,1.87c-0.46,0.23 -1.31,0.28 -2.06,0.13c-0.41,-0.09 -0.46,-0.39 -0.48,-0.78c0,-0.06 -0.01,-0.11 -0.01,-0.15c-0.02,-0.14 0.15,-0.59 0.25,-0.86c0.04,-0.1 0.07,-0.2 0.1,-0.28c0.15,-0.43 0.27,-1.49 0.28,-1.68c0.02,-0.25 0,-1.36 -0.06,-1.92zm2.84,-5.56c0.35,0.21 0.6,0.71 0.74,1.15c-0.77,-0.13 -1.57,0.14 -1.74,0.23l0.23,0.47c0.12,-0.06 0.94,-0.34 1.62,-0.14c0,0 0.03,0.03 0.04,0.07c0.05,0.61 0.16,2.1 -0.04,2.86c-0.05,0.15 -0.06,0.31 -0.06,0.47c-0.39,-0.02 -0.68,-0.19 -0.99,-0.38c-0.35,-0.22 -0.7,-0.43 -1.15,-0.38c-0.38,0.05 -0.64,0.23 -0.86,0.4c-0.24,0.17 -0.44,0.3 -0.74,0.28c-0.02,-0.04 -0.03,-0.1 -0.05,-0.13c0,-0.01 0,-0.01 0,-0.01c0,-0.01 -0.01,-0.02 -0.01,-0.03c-0.01,-0.04 -0.02,-0.07 -0.04,-0.09c-0.11,-0.21 -0.34,-0.83 -0.38,-1.39c-0.02,-0.29 0.04,-1.1 0.1,-1.67l0,0.01c0,0 0.15,-0.09 0.53,-0.09c0.31,0 0.65,-0.01 0.79,0.18c0.04,0.06 0.12,0.26 0.08,0.45c-0.14,0.71 -0.34,1.43 -0.44,1.61c0,0 0.46,0.02 0.57,0.02c0.04,-0.14 0.37,-1.47 0.38,-1.48c0.11,-0.38 0.03,-0.73 -0.08,-0.88c-0.28,-0.37 -0.89,-0.43 -1.3,-0.43c-0.19,0 -0.34,0.02 -0.46,0.05c0,-0.01 0,-0.01 0,-0.02c0.07,-0.35 0.2,-0.77 0.77,-1.22c0.52,-0.41 1.75,-0.37 2.49,0.09zm-6.57,5.92c-0.58,0.26 -0.44,1.04 -0.33,1.41c-0.49,0.37 -1.93,1.56 -2.04,2.78c-0.26,2.73 -1.67,4.55 -2.38,5.13c-0.6,0.5 -1.09,1.66 -1,2.4c0.04,0.35 0.15,0.69 0.3,1.01l-0.05,-0.04c-0.11,0.14 -0.22,0.39 -0.32,0.69c-0.15,-0.21 -0.35,-0.45 -0.6,-0.64l-1.44,-6.15l-0.61,0.15c-0.38,-0.49 -1.78,-2.31 -2.05,-2.73c-0.12,-0.19 -0.15,-0.44 -0.19,-0.68c-0.05,-0.36 -0.1,-0.72 -0.4,-0.95c-0.24,-0.18 -0.67,-0.94 -0.88,-1.39c1.45,-1.22 2.35,-2.99 2.46,-4.88c1.7,-0.32 3.21,-0.76 4.4,-1.27c1.34,0.58 2.79,1.01 4.39,1.3c0.06,1.49 0.43,2.82 1.04,3.79c-0.1,0 -0.2,0.02 -0.3,0.07zm-0.75,-4.39c-1.59,-0.3 -3.01,-0.73 -4.34,-1.32l0,-0.01c-0.02,0.01 -0.04,0.01 -0.05,0.01c-0.02,0 -0.03,0 -0.04,-0.01l-0.01,0.01c-1.14,0.51 -2.63,0.95 -4.32,1.28c-0.02,-0.86 -0.19,-1.69 -0.5,-2.44c2.02,-0.3 3.72,-0.8 4.88,-1.43c1.16,0.63 2.86,1.13 4.87,1.43c-0.3,0.77 -0.48,1.6 -0.49,2.48zm-3.41,-8.18c0,0.01 0,0.03 0,0.04c0.04,0.62 0.5,1.06 1.19,1.06l0.01,0c0.38,0 0.72,-0.15 0.98,-0.43c0.26,-0.28 0.39,-0.67 0.37,-1.06c-0.06,-0.75 -0.61,-1.33 -1.36,-1.5l0.01,0c0,-1 -0.75,-1.81 -1.67,-1.81l0,0.52c0.61,0 1.11,0.55 1.14,1.23c-0.73,0.03 -1.32,0.4 -1.64,0.98c-0.32,-0.58 -0.91,-0.96 -1.64,-0.98c0.03,-0.68 0.52,-1.23 1.14,-1.23l0,-0.53c-0.92,0 -1.67,0.81 -1.67,1.81l0.02,0c-0.75,0.17 -1.31,0.76 -1.37,1.51c-0.03,0.38 0.11,0.77 0.37,1.05c0.25,0.28 0.6,0.43 0.98,0.44l0.01,0c0.69,0 1.16,-0.45 1.2,-1.06c0.01,-0.01 0.01,-0.03 0.01,-0.04l-0.53,0l0,0c-0.03,0.38 -0.36,0.57 -0.69,0.57c-0.23,0 -0.44,-0.09 -0.59,-0.26c-0.17,-0.18 -0.25,-0.42 -0.23,-0.66c0.04,-0.63 0.58,-1.08 1.28,-1.08l0.02,0c0.84,0.01 1.43,0.62 1.43,1.49l0,1.65l-4.99,0c0.37,-2.85 4.23,-8.9 5.22,-10.41c0.99,1.54 4.95,7.8 5.33,10.41l-5.04,0l0,-1.65c0,-0.87 0.59,-1.48 1.43,-1.48l0.01,0c0.7,0 1.25,0.46 1.29,1.07c0.02,0.24 -0.06,0.48 -0.23,0.66c-0.15,0.17 -0.36,0.26 -0.59,0.27l-0.01,0c-0.35,0 -0.64,-0.2 -0.67,-0.57l0,-0.01l-0.52,0zm-0.97,2.24c0.35,0 0.63,0.28 0.63,0.63c0,0.35 -0.28,0.64 -0.63,0.64c-0.35,0 -0.63,-0.29 -0.63,-0.64c0,-0.35 0.28,-0.63 0.63,-0.63zm-0.97,0c-0.04,0.06 -0.07,0.12 -0.1,0.18c-0.06,0.14 -0.09,0.29 -0.09,0.45s0.03,0.32 0.09,0.45c0.05,0.12 0.11,0.22 0.19,0.31c0,0 0.25,0.25 0.42,0.31c-1.12,0.54 -2.77,1 -4.64,1.26c-0.63,-1.25 -1.61,-2.28 -2.82,-2.96l6.95,0zm-6.32,-11.26l-1.35,0l0,0.53l1.35,0l0,3.75c-1.02,-1.2 -2.15,-2.03 -2.78,-2.38l0,-2.12l-0.55,0l0,2.1c-0.44,0.32 -1.84,1.39 -2.63,2.48l0,-8.2l5.96,2.73l0,1.11zm-3.07,2.3c0.47,0.34 3.02,2.25 3.07,3.2l0,5.23l-1.84,0c-0.68,-0.22 -1.4,-0.35 -2.15,-0.35c-0.69,0 -1.35,0.11 -1.97,0.3l0,-4.99c0.13,-1.07 2.04,-2.77 2.89,-3.39zm-0.92,8.61c3.52,0 6.38,2.86 6.38,6.38c0,1.98 -0.94,3.87 -2.52,5.07l-2.06,-1.12c0.14,-0.12 0.37,-0.3 0.37,-0.3c0.02,0.01 0.06,0.02 0.1,0.03c0.41,0.13 1.51,0.48 2.16,-0.19c0.54,-0.56 0.46,-1.2 0.4,-1.66c-0.03,-0.27 -0.06,-0.5 0.02,-0.65c0.22,-0.37 0.35,-1 0.18,-1.49c-0.09,-0.29 -0.28,-0.49 -0.53,-0.59c-0.28,-0.11 -0.35,-0.2 -0.45,-0.32c-0.07,-0.08 -0.13,-0.15 -0.23,-0.23c-0.06,-0.05 -0.15,-0.28 -0.21,-0.44c-0.15,-0.36 -0.32,-0.78 -0.64,-0.94c-0.35,-0.18 -0.71,-0.03 -0.97,0.08c-0.09,0.04 -0.23,0.09 -0.24,0.1c-0.02,-0.02 -0.07,-0.09 -0.1,-0.14c-0.16,-0.22 -0.42,-0.62 -1.03,-0.58c-0.4,0.02 -0.64,0.21 -0.85,0.38c-0.1,0.08 -0.19,0.16 -0.3,0.21c-0.11,0.06 -0.44,0.08 -0.71,0.1c-0.48,0.03 -0.93,0.06 -1.17,0.27c-0.33,0.28 -0.46,0.74 -0.56,1.12c-0.04,0.13 -0.07,0.25 -0.11,0.33c-0.06,0.14 -0.2,0.22 -0.36,0.31c-0.21,0.13 -0.51,0.31 -0.53,0.69c-0.02,0.44 0.45,0.74 0.91,1.02c0.23,0.14 0.65,0.47 0.65,0.47c0.38,0.38 0.55,0.56 0.44,1.26c-0.07,0.44 -0.37,0.48 -0.83,0.51c-0.12,0.01 -1.5,0.15 -2.11,0.55c-0.04,0.02 -0.08,0.05 -0.12,0.07c-0.89,-1.13 -1.36,-2.48 -1.36,-3.92c0,-3.52 2.87,-6.38 6.38,-6.38zm-2.54,-0.18l-0.92,0l0,-14.87l0.37,-0.21l0.55,0.26l0,14.82zm-3.39,3.03c-0.4,0.68 -0.69,1.43 -0.85,2.23c-1.73,-0.34 -2.55,-0.72 -3.07,-1.03l0,-2.38c0.91,0.44 2.22,0.84 3.92,1.18zm-2.71,23.5c0,-0.25 0.13,-0.84 0.25,-1.36c0.13,-0.57 0.25,-1.11 0.26,-1.44c0,-0.16 0.02,-0.35 0.05,-0.55c0.07,-0.61 0.16,-1.36 -0.07,-2.18c-0.17,-0.58 -0.5,-2.17 -0.48,-3.19c0.01,-0.74 0.2,-2.3 0.2,-2.3c0.39,0.02 1.48,0.14 1.93,0.35c0.47,0.23 1.06,0.94 1.61,1.97c0.53,1 0.07,2.8 -0.08,3.34c-0.31,1.06 0.13,2.09 0.48,2.78c0.09,0.17 0.18,0.32 0.28,0.48c0.31,0.49 0.58,0.92 0.46,1.72c-0.14,0.94 -0.06,1.37 0.12,2.41c0.05,0.31 0.12,0.67 0.19,1.11c0.29,1.87 -0.29,3.02 -0.71,3.86c-0.01,0.01 -0.02,0.03 -0.02,0.04c-0.06,-0.6 -0.28,-1.15 -0.72,-1.42c-0.65,-0.3 -1.26,-0.28 -1.68,0.02c-0.15,-0.47 -0.04,-0.97 0.08,-1.46c0.13,-0.6 0.28,-1.23 -0.16,-1.71c-0.14,-0.14 -0.3,-0.25 -0.48,-0.36c-0.18,-0.12 -1.11,-0.69 -1.28,-1.19c-0.12,-0.28 -0.22,-0.6 -0.23,-0.92zm2.34,12l0.98,7.02l-1.52,0.77l-1.6,-7.02l2.14,-0.77zm21.39,20.29c0.33,0.22 1.06,0.73 1.4,1.09c0.24,0.25 0.22,0.48 -0.08,0.83c-0.12,0.13 -0.79,0.69 -1.29,1.1c-0.29,-0.28 -0.88,-0.85 -1.23,-1.21c-0.09,-0.09 -0.32,-0.32 0.06,-0.74c0.07,-0.09 0.69,-0.66 1.14,-1.07zm1.72,2.26c0.6,-0.69 0.36,-1.21 0.06,-1.54c-0.24,-0.25 -0.64,-0.56 -0.99,-0.81l4.07,0l-0.54,0.52c-0.04,0.04 -0.33,0.36 -0.3,0.76c0.01,0.15 0.08,0.38 0.33,0.56c0.5,0.39 0.66,0.52 0.66,0.53l0.34,-0.41s-0.17,-0.14 -0.68,-0.53c-0.11,-0.08 -0.12,-0.15 -0.13,-0.19c-0.01,-0.14 0.12,-0.31 0.15,-0.35l0.86,-0.82c0.24,0.14 0.68,0.43 1.06,0.77c0.04,0.04 0.18,0.17 -0.02,0.58c-0.13,0.26 -0.32,0.47 -0.32,0.48l-1.63,1.76c-0.92,-0.31 -1.72,-0.55 -3.29,-0.5c-0.17,0 -0.36,0 -0.57,0.02c0.38,-0.32 0.81,-0.69 0.94,-0.83zm-0.69,-2.88c0.44,-0.27 0.99,-0.59 1.35,-0.81c0.57,-0.34 1.03,-0.54 1.37,-0.6c0.07,-0.02 1.68,-0.32 1.79,-1.26c0.02,-0.15 0.01,-0.29 -0.01,-0.43l3.58,0c0,0.08 0,0.17 0,0.25c0.01,0.37 0.01,0.68 0.03,0.89c0.01,0.15 0,0.36 -0.01,0.59c-0.02,0.53 -0.04,1.07 0.18,1.37l-8.28,0zm11.43,-0.51c0.17,-0.32 0.17,-0.69 0,-1.08c-0.21,-0.52 -0.45,-0.91 -0.65,-1.26c-0.06,-0.1 -0.11,-0.2 -0.17,-0.29l3.78,0l0.01,1.06l-1.23,0l0,2.08l-2.25,0c0.2,-0.12 0.39,-0.29 0.51,-0.51zm2.56,-32.56c0.76,-0.27 1.32,-0.59 1.46,-0.68c0.54,0.35 1.27,0.73 1.65,0.92c-0.01,0.05 -0.03,0.11 -0.05,0.16c-0.12,0.36 -0.21,0.63 -0.21,0.85c0,1.38 0.69,2.33 1.24,3.09c0.33,0.45 0.61,0.84 0.61,1.16c0,0.2 -0.07,0.38 -0.22,0.52c-0.38,0.37 -1.16,0.48 -1.64,0.49l0,-0.1c-0.07,-1.37 -0.48,-3.54 -2.84,-6.41zm4.7,6.51l0,1.84l-1.86,0l0,-1.31c0.44,-0.02 1.3,-0.11 1.86,-0.53zm-1.86,11.8c0.12,0.18 0.26,0.35 0.42,0.51c0.54,0.54 1.24,0.83 2.01,0.83l0.03,0c2.05,-0.02 2.51,-1.78 2.52,-2.25c0,-0.26 -0.02,-0.58 -0.12,-0.89c0,0 -0.18,-0.42 -0.18,-0.43c-0.54,-0.93 -0.36,-2.74 0.33,-3.23c0.29,-0.21 0.64,-0.29 0.92,-0.22c0.23,0.05 0.41,0.2 0.53,0.43c0.11,0.23 0.11,0.49 -0.02,0.69c-0.11,0.19 -0.32,0.32 -0.56,0.29l0,0.53l0.01,0c0.42,0 0.79,-0.2 1,-0.54c0.22,-0.36 0.24,-0.81 0.03,-1.2c-0.18,-0.38 -0.48,-0.62 -0.86,-0.71c-0.44,-0.11 -0.93,0 -1.35,0.3c-0.74,0.53 -1,1.85 -0.82,2.94c-0.3,-0.14 -0.64,-0.22 -1.05,-0.22c-0.6,0 -1.1,0.27 -1.37,0.74c-0.24,0.43 -0.25,0.97 -0.02,1.37c0.23,0.38 0.62,0.59 1.12,0.59l0.02,0l-0.01,-0.53c-0.33,0.01 -0.54,-0.11 -0.67,-0.33c-0.14,-0.24 -0.14,-0.57 0.02,-0.84c0.1,-0.17 0.35,-0.47 0.91,-0.47c0.52,0 0.92,0.14 1.18,0.41c0.39,0.39 0.44,0.99 0.43,1.31c0,0.01 -0.15,1.72 -2,1.73c-0.01,0 -0.02,0 -0.02,0c-0.79,0 -1.33,-0.36 -1.64,-0.67c-0.54,-0.54 -0.79,-1.1 -0.79,-1.83l0,-0.57l4.61,-5.05l3.12,0l0,-0.53l-3.35,0l-4.38,4.79l0,-6.38l7.73,0l0,-0.53l-1.44,0l-0.01,-6.32l6.05,-0.01c-1.13,0.85 -3.47,2.64 -3.69,2.84c-0.35,0.32 -0.69,0.71 -0.7,1.65c0,0.43 0.17,0.84 0.49,1.16c0.35,0.36 0.88,0.59 1.34,0.59c0.58,0 1.55,-0.38 1.58,-1.41c0.02,-0.41 -0.16,-0.76 -0.39,-1c-0.2,-0.2 -0.47,-0.29 -0.81,-0.28c-0.63,0.03 -0.91,0.6 -0.9,0.99l0.53,-0.01c0,-0.08 0.06,-0.44 0.4,-0.46c0.17,0 0.31,0.04 0.41,0.14c0.12,0.12 0.25,0.34 0.24,0.61c-0.03,0.73 -0.79,0.89 -1.06,0.89c-0.26,0 -0.67,-0.13 -0.97,-0.43c-0.15,-0.16 -0.33,-0.42 -0.33,-0.79c0,-0.79 0.28,-1.03 0.52,-1.25c0.26,-0.24 4.28,-3.23 4.28,-3.23l0.23,0c-1.31,9.06 -6.15,17.4 -13.5,23.02l0,-6.74zm2.12,-29.23c-0.32,-0.91 -0.87,-1.94 -1.6,-2.97c0.47,-1.36 1.11,-2.48 1.76,-3.54c0.61,0.92 1.2,2 1.71,3.21c-0.85,1.06 -1.51,2.25 -1.87,3.3zm2.12,-2.67c0.86,2.25 1.48,4.91 1.46,7.82l0.02,14.12l-3.33,0l0,-17.73c0,-1.07 0.79,-2.82 1.85,-4.21zm2.03,8.18l3.08,0l0,6.92l-3.07,0l-0.01,-6.92zm-4.38,-12.58c-0.66,1.07 -1.38,2.29 -1.9,3.76l0,-5.83c0.61,0.5 1.26,1.2 1.9,2.07zm-0.03,8.61l0,0l0,13.67c-0.06,-0.09 -0.12,-0.17 -0.18,-0.26c-0.51,-0.7 -1.14,-1.57 -1.15,-2.78c0,-0.13 0.09,-0.39 0.19,-0.69c0.2,-0.59 0.51,-1.5 0.52,-2.59c0.01,-0.83 -0.42,-2.05 -1.25,-3.61l0,-8.01c1.08,1.51 1.87,3.21 1.87,4.27zm-1.15,7.35c0,0.68 -0.13,1.26 -0.28,1.76c-0.76,-0.38 -1.8,-0.95 -1.99,-1.21c-0.08,-0.11 0.04,-0.55 0.12,-0.84c0.15,-0.56 0.31,-1.14 -0.02,-1.53c-0.53,-0.63 -1.07,-0.79 -1.53,-0.81c0.25,-0.43 0.39,-0.93 0.39,-1.44c0,-1.61 -1.31,-2.91 -2.92,-2.91s-2.91,1.3 -2.91,2.91c0,0.94 0.46,1.82 1.21,2.37c-0.15,0.25 -0.28,0.51 -0.3,0.71c-0.08,0.56 -0.22,1.51 -0.61,1.86c-0.16,0.13 -0.33,0.24 -0.5,0.35c-0.07,0.04 -0.25,0.11 -0.29,0.18c-0.05,0.08 0.01,0.13 0.05,0.17c0.01,0.01 0.01,0.01 0.01,0.01c0.04,0.03 0.1,0.08 0.2,0.13c0.61,0.34 1.99,0.71 3.2,0.76c-0.07,0.33 -0.21,0.86 -0.47,1.68c-0.65,2 -1.78,3.95 -2.63,5.11c-0.85,1.16 -1.45,1.69 -2.09,2.24l-0.25,0.22c-0.75,0.66 -1.26,1.16 -2.19,2.14c-0.39,0.41 -0.69,0.92 -0.98,1.4c-0.39,0.67 -0.76,1.29 -1.31,1.62c-1.76,1.05 -2.25,2.52 -2.39,3.18c-0.35,-0.37 -0.86,-0.92 -1.19,-1.37c-0.48,-0.65 -0.47,-2.57 -0.21,-4.13c0.13,-0.76 0.22,-1.6 0.31,-2.53c0.9,-0.46 1.46,-2.03 1.85,-3.38c0.27,-0.92 1.06,-2.07 1.51,-2.37c0.57,-0.37 1.93,-1.93 2.72,-3.03c0.7,-0.98 1.2,-2.57 1.35,-3.06c0.77,0.04 1.67,-0.08 2.37,-0.75c0.49,-0.46 0.68,-0.87 0.57,-1.24c-0.13,-0.45 -0.68,-0.76 -1.72,-0.98c-0.28,-0.06 -0.48,-0.11 -0.65,-0.16c0.12,-0.05 0.24,-0.1 0.38,-0.16c0.55,-0.24 0.78,-0.27 1.11,-0.25l0.02,-0.53c-0.46,-0.02 -0.77,0.05 -1.33,0.3c-0.66,0.25 -1.14,0.48 -1.21,0.51c-0.09,0.02 -0.18,0.05 -0.29,0.1c-0.42,0.18 -1.15,0.49 -2.58,0.26c0.56,-0.66 1.48,-1.71 1.85,-1.95c0.4,-0.26 1.81,-0.69 2.65,-0.95c0.31,-0.09 0.57,-0.17 0.73,-0.23c0.7,-0.23 1.77,-1.08 2.19,-1.73c0.32,-0.49 1.61,-1.23 2.54,-1.34c0.62,-0.07 0.95,0.05 1.08,0.11c0.48,1.83 1.7,3.2 2.25,3.83c0.11,0.12 0.23,0.26 0.25,0.3l0.08,0.13c1.54,2.57 1.86,3.89 1.85,4.54zm-1.24,-23.1l-5.82,0l0,-5.02c0,-1.02 2.01,-2.71 2.95,-3.41c0.45,0.32 1.81,1.16 2.87,2.16l0,6.27zm0,-10.73l-1.23,0l0,0.53l1.23,0l0,3.26c-1.02,-0.93 -2.16,-1.6 -2.57,-1.89l0,-2.12l-0.55,0l0,2.1c-0.46,0.33 -1.94,1.46 -2.72,2.59l0,-8.3l5.84,3.17l0,0.66zm0,11.26l0,0.65c-0.89,0.48 -2.37,0.93 -4.3,1.31c-0.59,-0.8 -1.34,-1.48 -2.21,-1.96l6.51,0zm-6.4,-0.53l-0.92,0l0,-14.82l0.55,-0.25l0.37,0.2l0,14.87zm2.92,6.56c0,1.29 -0.39,2.53 -1.11,3.59c-0.24,0.07 -0.61,0.15 -0.9,0.06c-1.63,-0.55 -1.24,-2.53 -1.05,-3.48l0.04,-0.19c0.14,-0.78 -0.14,-1.8 -0.7,-2.52c-0.38,-0.5 -0.85,-0.78 -1.33,-0.81c-1.17,-0.07 -1.65,0.39 -2.04,0.76l-0.05,0.04c-0.32,-0.39 -1.01,-1.12 -2.41,-0.54c-1.31,0.54 -1.45,2.51 -1.39,3.16c0.02,0.26 -0.1,0.45 -0.26,0.7c-0.17,0.28 -0.39,0.63 -0.41,1.16c-0.02,0.51 0.25,0.96 0.49,1.36c0.23,0.39 0.38,0.65 0.28,0.8c-0.18,0.26 -0.37,0.27 -0.69,0.22c-0.78,-0.98 -1.23,-2.54 -1.23,-4.31c0,-3.52 2.86,-6.38 6.38,-6.38c3.51,0 6.38,2.86 6.38,6.38zm-4.41,-13.02c-0.8,-1.06 -2.13,-2.08 -2.56,-2.39l0,-2.1l-0.55,0l0,2.12c-0.45,0.32 -1.78,1.3 -2.85,2.32l0,-3.69l1.35,0l0,-0.53l-1.35,0l0,-1.12l5.96,-2.72l0,8.11zm-13.55,-13.35l-0.9,0l0,0.53l0.9,0l0,1.14l-5.98,0c0.95,-1.72 3.31,-2.91 5.98,-2.99l0,1.32zm-42.82,41.67c0,-22.96 17.97,-41.8 40.58,-43.2c-2.01,0.53 -3.62,1.68 -4.32,3.2l-1.09,0l0,1.94l0.66,0l0,3.78l-6.84,-3.12l0,-3.08l-0.43,0l0,3.05l-6.6,3.61l0,-2.19l-0.53,0l0.02,3.42l-1.3,0l0,0.53l1.3,0l0,4.14c-8.77,6.83 -13.8,17.12 -13.8,28.22c0,11.11 5.03,21.39 13.8,28.23l0,5.73l-1.67,0l0.01,2.08c-11.9,-7.72 -19.79,-21.12 -19.79,-36.33l0,-0.01zm20.02,20.52c0.24,-0.4 0.23,-0.94 -0.02,-1.37c-0.26,-0.47 -0.76,-0.74 -1.36,-0.74c-0.41,0 -0.76,0.08 -1.06,0.22c0.19,-1.09 -0.07,-2.41 -0.81,-2.94c-0.42,-0.3 -0.91,-0.41 -1.35,-0.3c-0.38,0.09 -0.68,0.33 -0.87,0.7c-0.2,0.4 -0.19,0.85 0.04,1.21c0.21,0.34 0.58,0.54 0.99,0.54l0.02,0l-0.01,-0.53c-0.22,-0.02 -0.44,-0.1 -0.56,-0.29c-0.12,-0.2 -0.12,-0.46 -0.01,-0.69c0.12,-0.23 0.3,-0.38 0.52,-0.43c0.29,-0.07 0.63,0.01 0.93,0.22c0.68,0.49 0.87,2.3 0.33,3.23c-0.01,0.01 -0.3,0.52 -0.3,1.32c0,0.47 0.47,2.23 2.52,2.25l0.03,0c0.77,0 1.46,-0.29 2.01,-0.83c0.15,-0.15 0.28,-0.31 0.39,-0.47l0,6.22c-7.17,-5.72 -11.71,-13.61 -12.92,-22.53l0.13,0c0.03,0.03 3.54,2.96 3.83,3.22c0.24,0.22 0.51,0.46 0.52,1.25c0,0.37 -0.18,0.63 -0.33,0.79c-0.3,0.3 -0.71,0.38 -0.98,0.38c-0.27,0 -1.02,-0.11 -1.04,-0.84c-0.01,-0.27 0.1,-0.49 0.23,-0.61c0.1,-0.1 0.24,-0.14 0.41,-0.14c0.33,0.02 0.43,0.39 0.43,0.46l0.52,0.01c0.01,-0.39 -0.29,-0.96 -0.93,-0.99c-0.32,-0.01 -0.6,0.09 -0.8,0.29c-0.23,0.23 -0.4,0.58 -0.39,1c0.04,1.02 1,1.35 1.57,1.35c0.46,0 0.99,-0.18 1.35,-0.54c0.32,-0.32 0.49,-0.72 0.49,-1.16c-0.01,-0.94 -0.35,-1.33 -0.7,-1.64c-0.22,-0.21 -2.29,-1.97 -3.3,-2.83l5.75,0l-0.01,6.31l-1.56,0l0,0.53l7.73,0l0,6.39l-4.38,-4.8l-3.35,0l0,0.53l3.12,0l4.61,5.05l0,0.41c0.05,0.91 -0.31,1.54 -0.76,1.99c-0.31,0.31 -0.85,0.67 -1.64,0.67c-0.01,0 -0.01,0 -0.02,0c-1.85,-0.01 -2,-1.72 -2,-1.73c-0.01,-0.32 0.04,-0.92 0.42,-1.31c0.27,-0.27 0.67,-0.41 1.19,-0.41c0.56,0 0.81,0.3 0.91,0.47c0.15,0.27 0.16,0.6 0.02,0.85c-0.13,0.21 -0.39,0.33 -0.67,0.32l-0.01,0.53c0.52,0.01 0.91,-0.2 1.13,-0.59zm1.43,-41.85l0,4.13c-1.88,1.36 -4.46,4.98 -5.61,9.84l0,-6.22c0.06,0.11 0.16,0.19 0.3,0.19c0.19,0 0.34,-0.16 0.34,-0.35c0,-0.19 -0.15,-0.35 -0.34,-0.35c-0.14,0 -0.24,0.08 -0.3,0.18l0,-0.84c0.06,0.11 0.16,0.18 0.3,0.18c0.19,0 0.34,-0.15 0.34,-0.34c0,-0.2 -0.15,-0.35 -0.34,-0.35c-0.14,0 -0.24,0.07 -0.3,0.18l0,-0.84c0.06,0.11 0.16,0.18 0.3,0.18c0.19,0 0.34,-0.16 0.34,-0.35c0,-0.19 -0.15,-0.34 -0.34,-0.34c-0.14,0 -0.24,0.07 -0.3,0.18l0,-0.36l-0.13,0c0.11,-0.06 0.19,-0.17 0.19,-0.3c0,-0.19 -0.16,-0.35 -0.35,-0.35c-0.19,0 -0.35,0.16 -0.35,0.35c0,0.13 0.08,0.24 0.19,0.3l-0.13,0l0,0.39c-0.05,-0.12 -0.17,-0.21 -0.32,-0.21c-0.19,0 -0.35,0.15 -0.35,0.34c0,0.19 0.16,0.35 0.35,0.35c0.15,0 0.27,-0.09 0.32,-0.22l0,0.92c-0.05,-0.13 -0.17,-0.22 -0.32,-0.22c-0.19,0 -0.35,0.15 -0.35,0.35c0,0.19 0.16,0.34 0.35,0.34c0.15,0 0.27,-0.09 0.32,-0.21l0,0.91c-0.05,-0.13 -0.17,-0.22 -0.32,-0.22c-0.19,0 -0.35,0.16 -0.35,0.35c0,0.19 0.16,0.35 0.35,0.35c0.15,0 0.27,-0.09 0.32,-0.22c0,0 0.01,10.5 0.01,11.25l-3.06,-0.01l0,-3.41c0.06,0.11 0.17,0.18 0.3,0.18c0.19,0 0.35,-0.15 0.35,-0.34c0,-0.19 -0.16,-0.35 -0.35,-0.35c-0.13,0 -0.24,0.07 -0.3,0.18l0,-0.84c0.06,0.11 0.17,0.18 0.3,0.18c0.19,0 0.35,-0.15 0.35,-0.35c0,-0.19 -0.16,-0.34 -0.35,-0.34c-0.13,0 -0.24,0.07 -0.3,0.18l0,-0.84c0.06,0.11 0.17,0.18 0.3,0.18c0.19,0 0.35,-0.16 0.35,-0.35c0,-0.19 -0.16,-0.35 -0.35,-0.35c-0.13,0 -0.24,0.08 -0.3,0.19l0,-0.36l-0.13,0c0.11,-0.06 0.19,-0.17 0.19,-0.3c0,-0.19 -0.16,-0.35 -0.35,-0.35c-0.19,0 -0.35,0.16 -0.35,0.35c0,0.13 0.08,0.24 0.19,0.3l-0.12,0l0,0.39c-0.06,-0.13 -0.18,-0.22 -0.33,-0.22c-0.19,0 -0.34,0.16 -0.34,0.35c0,0.19 0.15,0.35 0.34,0.35c0.15,0 0.27,-0.09 0.33,-0.22l0,0.91c-0.06,-0.12 -0.18,-0.21 -0.33,-0.21c-0.19,0 -0.34,0.15 -0.34,0.34c0,0.2 0.15,0.35 0.34,0.35c0.15,0 0.27,-0.09 0.33,-0.21l0,0.91c-0.06,-0.13 -0.18,-0.22 -0.33,-0.22c-0.19,0 -0.34,0.16 -0.34,0.35c0,0.19 0.15,0.34 0.34,0.34c0.15,0 0.27,-0.08 0.33,-0.21l0,3.57l-2.44,2.26l0.4,0.42l2.05,-1.97l0,6.31l-3.19,0c-0.18,-1.47 -0.28,-2.97 -0.28,-4.48c0,-10.8 4.83,-20.81 13.27,-27.54l0,5.38l-1.47,0l0,0.53l1.47,0zm-2.4,15.55l0,17.4l-3.21,0l0.01,-14c0,-2.89 0.5,-5.34 1.43,-7.63c1.05,1.4 1.73,3 1.77,4.05c0,0.06 0,0.18 0,0.18zm-1.53,-4.85c0.51,-1.21 1.1,-2.29 1.72,-3.22c0.64,1.07 1.29,2.19 1.75,3.55c-0.72,1.02 -1.33,2.07 -1.65,2.98c-0.35,-1.05 -0.96,-2.25 -1.82,-3.31zm2.06,4.85s0.01,-0.06 0.02,-0.16c0.06,-1 0.8,-2.54 1.85,-4.02l0,21.58l-1.87,0l0,-17.4zm0.05,-8.63c0.61,-0.83 1.23,-1.51 1.82,-2l0,5.57c-0.51,-1.38 -1.2,-2.54 -1.82,-3.57zm-4.34,12.59l0,6.6l-3.1,0l0,-6.59l3.1,-0.01zm5.02,36.6l4.59,0.01l0,1.55l-4.58,0l-0.01,-1.56zm0.31,2.09l7.26,0c-0.66,0.69 -0.54,1.43 -0.21,1.89c0.13,0.18 1.53,1.74 2.09,2.37c-3.23,-1.07 -6.3,-2.5 -9.14,-4.26zm8.9,3.2c-0.68,-0.76 -1.35,-1.52 -1.42,-1.61c-0.16,-0.23 -0.36,-0.69 0.16,-1.23c0.2,-0.21 0.4,-0.31 0.58,-0.36l0.52,0l1.63,1.71c-0.32,0.03 -0.62,0.13 -0.87,0.34c-0.36,0.29 -0.58,0.71 -0.6,1.15zm0.9,0.96c-0.18,-0.19 -0.39,-0.5 -0.38,-0.91c0.01,-0.3 0.16,-0.59 0.41,-0.79c0.24,-0.19 0.53,-0.26 0.83,-0.21c0.25,0.04 0.45,0.2 0.54,0.43c0.01,0.04 0.02,0.09 0.03,0.13c0.18,0.01 0.35,0.02 0.53,0.03c0,-0.12 -0.03,-0.24 -0.07,-0.35c-0.08,-0.22 -0.23,-0.4 -0.41,-0.53l-1.82,-1.96l4.45,0l-1.11,1.04l0.36,0.38l1.53,-1.42l0.04,0l0,3.59c-0.13,0.05 -0.26,0.09 -0.4,0.14l-0.19,0.07c-0.27,0.08 -0.55,0.19 -0.83,0.29c-0.84,0.31 -1.7,0.63 -2.28,0.63c-0.42,0 -0.91,-0.22 -1.23,-0.56zm2.17,0.93c0.48,-0.12 1.01,-0.32 1.52,-0.51c0.28,-0.1 0.55,-0.2 0.82,-0.29l0.19,-0.06c0.96,-0.33 1.72,-0.58 3.32,-0.55c0.68,0.02 1.73,0.07 2.88,0.23c0.21,0.35 0.91,1.59 1.43,2.51c-3.5,-0.04 -6.91,-0.49 -10.16,-1.33zm10.55,0.96c-1.48,-2.64 -1.49,-2.64 -1.69,-2.65c-0.3,-0.04 -0.58,-0.08 -0.86,-0.11l0,-0.92l1.25,0l0,-0.5l-1.25,0l0,-1.87l5.65,0c-0.35,0.32 -0.77,0.71 -0.85,0.8c-0.44,0.5 -0.46,1.05 -0.03,1.48c0.28,0.28 0.72,0.7 1.03,1c-0.43,0.05 -0.89,0.11 -1.38,0.19c-0.17,0 -0.18,0.01 -1.87,2.58zm0.38,0.38c0.61,-0.93 1.41,-2.14 1.63,-2.45c0.64,-0.24 2.51,-0.32 2.84,-0.33c1.61,-0.04 2.66,0.25 3.62,0.58l0.2,0.06c0.26,0.09 0.53,0.19 0.8,0.29c0.5,0.18 1.01,0.37 1.47,0.5c-3.38,0.87 -6.91,1.33 -10.56,1.35zm12.79,-2.27c-0.32,0.34 -0.81,0.56 -1.23,0.56c-0.58,0 -1.45,-0.32 -2.29,-0.63c-0.23,-0.09 -0.45,-0.17 -0.67,-0.24l1.46,-1.6c0.07,-0.06 0.6,-0.66 0.57,-1.23c-0.01,-0.22 -0.1,-0.42 -0.26,-0.57c-0.18,-0.16 -0.37,-0.32 -0.56,-0.45l3.34,0l-1.84,1.96c-0.18,0.13 -0.33,0.31 -0.41,0.53c-0.04,0.11 -0.06,0.23 -0.07,0.34c0.18,-0.01 0.35,-0.01 0.53,0c0,-0.05 0.01,-0.1 0.03,-0.15c0.09,-0.22 0.29,-0.38 0.54,-0.43c0.3,-0.05 0.6,0.02 0.83,0.21c0.24,0.2 0.4,0.49 0.41,0.79c0.01,0.41 -0.2,0.72 -0.38,0.91zm0.3,-2.11c-0.25,-0.21 -0.55,-0.32 -0.87,-0.34l1.63,-1.71l0.52,0c0.18,0.05 0.38,0.15 0.58,0.36c0.52,0.54 0.32,1 0.16,1.23c-0.07,0.1 -0.74,0.85 -1.42,1.61c-0.03,-0.44 -0.24,-0.86 -0.6,-1.15zm0.42,2.14c0.59,-0.66 1.91,-2.12 2.03,-2.3c0.33,-0.46 0.45,-1.2 -0.21,-1.89l7.13,0c-2.79,1.72 -5.79,3.13 -8.95,4.19zm9.21,-4.72l-4.58,0l0,-1.55l4.58,0l0,1.55zm0.52,0.03l0,-2.1l-1.97,-0.01l0,-5.28c9.01,-6.73 14.39,-17.44 14.39,-28.68c0,-11.24 -5.38,-21.96 -14.4,-28.68l0,-3.69l1.35,0l0,-0.52l-1.35,0l0,-3.42l-0.54,0l0,2.16l-6.56,-3.58l0,-3.05l-0.43,0l0,3.07l-6.84,3.12l0,-3.77l0.62,0l0,-1.94l-1.05,0c-0.72,-1.55 -2.38,-2.73 -4.46,-3.24c22.85,1.16 41.08,20.11 41.08,43.24c0,15.24 -7.92,28.65 -19.84,36.37z" fill="#ffffff" id="svg_57"/>
 </g>
</svg>